<svg width="462" height="96" viewBox="0 0 462 96" fill="none" xmlns="http://www.w3.org/2000/svg">
<path d="M53.991 74.8667C53.9917 76.4194 53.8298 77.9678 53.508 79.4867C51.4262 89.1783 42.6136 94.9431 29.4927 95.3391C28.9927 95.3536 28.4928 95.3657 27.9784 95.3657C11.8797 95.3609 0 86.0363 0 73.4563H15.4056C15.4056 79.1051 20.9192 83.0634 28.8406 83.0634C34.6367 83.0634 38.3124 79.9552 38.3124 75.2942C38.3124 71.6185 36.7596 69.3604 29.6907 67.5225L16.5407 63.9821C7.3635 61.4414 2.12283 54.7928 2.12283 45.4683C2.12283 34.3035 12.7298 26.1019 27.4205 26.1019C43.5434 26.1019 53.4355 33.8857 53.4355 46.6033H38.3124C38.3124 41.0873 34.0692 37.8318 26.8675 37.8318C21.3539 37.8318 17.3884 40.6695 17.3884 44.6157C17.3884 48.1562 19.5088 50.5616 25.5778 52.2521L38.7278 56.0631C48.0596 58.7511 53.991 65.5349 53.991 74.8667Z" fill="#101010"/>
<path d="M211.909 0V26.6236H227.015V39.4765H211.909V67.7737C211.909 79.2066 215.437 80.6266 221.504 80.6266C223.919 80.6266 227.72 80.3416 229.276 80.0591V93.6148C226.861 94.0326 222.357 94.4649 217.843 94.4649C210.356 94.4649 196.515 93.465 196.515 71.3021V39.4765H185.353V26.6236H196.515V0" fill="#101010"/>
<path d="M461.691 27.2587L443.539 27.3457L429.486 47.4655L415.228 27.4785L397.093 27.563L420.478 60.3619L397.402 93.3636L415.539 93.2791L429.607 73.1569L443.851 93.1463L462 93.0593L438.615 60.2749L461.691 27.2587Z" fill="#101010"/>
<path d="M279.89 26.626C273.246 26.6136 266.754 28.6132 261.268 32.3617C256.671 35.5284 252.912 39.7649 250.315 44.7065C247.719 49.6481 246.362 55.1467 246.362 60.729C246.362 66.3112 247.719 71.8098 250.315 76.7514C252.912 81.693 256.671 85.9295 261.268 89.0962C266.756 92.8409 273.246 94.8425 279.89 94.8392C298.433 94.8392 313.433 79.5664 313.433 60.729C313.433 41.8915 298.433 26.626 279.89 26.626ZM279.89 81.2376C271.404 81.2376 264.132 75.7506 261.268 68.0345C259.539 63.3226 259.539 58.1498 261.268 53.4379C264.132 45.7097 271.389 40.2203 279.89 40.2203C290.891 40.2203 299.824 49.4241 299.824 60.7483C299.824 72.0725 290.891 81.2376 279.89 81.2376Z" fill="#101010"/>
<path d="M261.263 0V53.4355C259.534 58.1474 259.534 63.3202 261.263 68.0321V93.6148H246.357V0" fill="#101010"/>
<path d="M121.236 34.557L121.209 34.5304C115.22 29.409 107.596 26.6 99.7152 26.6115C81.182 26.6115 66.1725 41.8674 66.1725 60.7217C66.1645 63.8601 66.592 66.9843 67.4428 70.0052C71.4011 84.3313 84.3482 94.832 99.7007 94.832C106.213 94.8414 112.582 92.9174 118 89.3039C122.407 86.3446 126.072 82.4066 128.706 77.7974C131.341 73.1882 132.875 68.0325 133.188 62.7326C133.501 57.4328 132.586 52.1323 130.512 47.2448C128.439 42.3573 125.264 38.015 121.236 34.557V34.557ZM117.995 68.8701C114.928 76.1394 107.885 81.2352 99.6959 81.2352C89.0696 81.2352 80.3754 72.64 79.803 61.8423C79.7886 61.4631 79.7765 61.0985 79.7765 60.7217C79.7765 49.4217 88.7122 40.2203 99.6959 40.2203C102.945 40.2141 106.143 41.0273 108.994 42.5847C113.037 44.807 116.209 48.3316 117.995 52.5854C119.074 55.1644 119.63 57.9321 119.63 60.7278C119.63 63.5234 119.074 66.2912 117.995 68.8701V68.8701Z" fill="#101010"/>
<path d="M133.241 26.5922V93.6099H117.997V68.8798C119.076 66.3008 119.632 63.5331 119.632 60.7374C119.632 57.9418 119.076 55.174 117.997 52.5951V26.626L133.241 26.5922Z" fill="#101010"/>
<path d="M171.529 0V93.6148H156.136V0" fill="#101010"/>
<path d="M391.896 60.4947C391.918 69.5341 388.365 78.2154 382.011 84.6453L346.853 60.7217C346.106 60.206 345.219 59.9322 344.312 59.9374C343.405 59.9426 342.521 60.2265 341.781 60.7507L326.46 71.4277C325.276 67.9062 324.675 64.2148 324.682 60.4995C324.682 41.6621 339.728 26.4135 358.288 26.4135C376.848 26.4135 391.896 41.6669 391.896 60.4947Z" fill="#FDB706"/>
</svg>
