<svg width="474" height="14" viewBox="0 0 474 14" fill="none" xmlns="http://www.w3.org/2000/svg">
<path d="M122.219 5.60764C122.361 5.39043 122.79 5.25825 123.077 5.30001C123.793 5.33945 123.649 5.12377 123.935 5.07895C124.222 5.16399 124.509 5.24903 124.796 5.33408C125.083 5.37583 125.513 5.41681 125.656 5.37276C126.228 5.23981 126.515 5.28157 126.516 5.49801C126.516 5.5413 126.946 5.539 127.089 5.58152C127.089 5.53823 127.089 5.49494 127.089 5.45165L126.945 5.40913C126.801 5.28003 126.657 5.10764 126.8 5.06358C127.659 4.92911 127.374 5.23367 127.661 5.31871C127.804 5.36123 127.948 5.44704 128.092 5.48956C128.235 5.53208 128.378 5.48803 128.522 5.53055C128.521 5.48726 128.521 5.44397 128.521 5.40068C128.52 5.3141 128.377 5.185 128.52 5.18423C128.949 5.09535 129.093 5.18116 129.38 5.2662C129.667 5.35124 129.955 5.60944 130.239 5.26159C131.528 5.21139 132.817 5.03132 134.108 5.32743C134.538 5.4117 134.538 5.49828 134.824 5.2803C135.109 5.1056 136.112 5.14352 136.543 5.40095C136.543 5.40095 136.543 5.40095 136.543 5.35766C136.4 5.35843 136.257 5.35919 136.257 5.40248C136.257 5.40248 136.257 5.44577 136.257 5.48906C136.401 5.48829 136.4 5.445 136.543 5.40095C136.972 5.1822 137.258 5.13737 137.544 5.04925C138.117 4.91631 137.974 5.09024 138.118 5.13276C138.261 5.21857 138.691 5.21627 138.978 5.25802C138.835 5.34537 138.692 5.43271 138.549 5.47677C138.836 5.47523 138.979 5.47447 139.266 5.47293C139.552 5.47139 139.982 5.4258 140.411 5.42349C140.268 5.46755 140.125 5.51161 139.983 5.59896C139.983 5.59896 140.126 5.72806 140.126 5.68477C140.413 5.68323 140.699 5.6384 141.129 5.6361C140.985 5.55029 140.698 5.50854 140.411 5.42349C140.123 5.16529 139.693 5.12431 138.978 5.25802C139.262 4.82359 139.262 4.73701 140.409 4.90402C141.126 5.03005 142.127 4.85151 142.845 5.06412C142.988 5.10664 143.418 5.06105 143.704 5.05951C144.42 4.9258 145.136 4.96525 145.567 5.09281C145.71 5.13533 145.997 5.1338 146.283 5.13226C146.283 5.13226 146.283 5.04568 146.426 5.00162C146.712 4.91351 147.141 4.82462 147.284 4.82386C147.714 4.86484 147.858 4.99394 147.286 5.12688C147.143 5.17094 148.147 5.38201 148.576 5.29312C149.006 5.20424 149.435 5.07207 150.008 5.15557C150.008 5.15557 150.008 5.15557 149.865 5.15634C149.865 5.19963 149.865 5.24292 150.009 5.24215C150.009 5.24215 150.152 5.24138 150.295 5.24062C150.295 5.19733 150.152 5.19809 150.008 5.15557C149.864 4.9399 150.293 4.80772 150.723 4.80542C151.725 4.80004 152.871 4.70731 153.589 5.04979C153.876 5.22141 154.591 4.91454 154.879 5.17274C155.451 4.95322 156.024 5.03673 156.597 5.07694C157.027 5.07464 157.313 4.89995 157.887 5.07003C158.174 5.15507 158.745 4.84897 159.176 5.06312C159.176 5.10641 159.32 5.10564 159.463 5.10487C160.465 5.0562 162.184 5.00369 163.188 5.12818C163.761 5.21169 164.048 5.25344 164.62 5.07721C164.763 5.03315 165.479 4.98602 165.622 5.02854C166.34 5.24115 166.912 5.06492 167.341 4.97604C168.2 4.79827 168.2 4.75498 168.774 4.96835C169.204 5.13921 169.635 5.22348 170.35 5.08977C170.925 5.34643 171.353 5.17097 171.783 5.08209C171.783 5.08209 174.074 4.93993 174.218 4.98245C174.504 5.06749 174.791 5.10924 175.221 5.02036C175.364 4.9763 175.793 4.974 175.937 4.97323C176.51 5.10003 176.941 5.27088 177.943 5.13563C178.659 5.0885 179.376 5.17124 180.235 5.16663C180.379 5.16586 180.522 5.1218 180.665 5.12104C181.238 5.07467 181.093 4.81571 181.809 4.76857C182.382 4.7655 182.67 5.0237 183.242 4.84747C183.385 4.80341 183.672 4.84517 183.815 4.88769C184.245 4.92867 184.247 5.27499 185.105 5.05393C185.392 5.0091 186.109 5.17842 186.682 5.21864C187.686 5.34313 188.831 5.20711 189.69 5.11593C190.549 5.02474 191.122 5.10824 191.838 5.06111C191.982 5.06034 191.982 5.10363 192.125 5.14615C191.982 5.14692 191.839 5.19098 191.696 5.19175C191.553 5.19252 191.409 5.19329 191.266 5.19405C191.123 5.19482 190.98 5.19559 190.836 5.19636C190.98 5.23888 190.98 5.28217 191.124 5.32469C191.267 5.36721 191.554 5.45225 191.841 5.49401C191.984 5.49324 192.414 5.44764 192.557 5.40359C192.699 5.31624 192.556 5.23043 192.698 5.14308C192.841 5.09902 192.984 5.01168 193.271 5.01014C194.846 4.9584 196.424 5.25298 198.142 5.02731C198.571 4.98171 197.714 5.41922 198.859 5.19663C199.288 5.10774 199.574 5.01963 199.86 4.93151C200.003 4.88745 200.433 4.97173 200.433 4.97173C200.435 5.27475 200.866 5.4889 201.154 5.7471C201.154 5.79039 201.011 5.83444 200.868 5.92179C200.868 5.96508 200.725 6.00914 200.725 6.00914C201.012 6.09418 202.015 6.04551 202.301 5.91411C202.587 5.7827 202.872 5.6513 202.155 5.52527C201.869 5.48352 201.438 5.39924 201.438 5.31266C201.294 5.22685 201.437 5.09622 201.58 5.00887C201.723 5.05139 202.01 5.09315 202.153 5.13567C202.297 5.1349 202.44 5.17742 202.583 5.13336C204.158 4.95175 205.591 5.11723 207.167 5.10878C208.17 5.1034 209.172 5.05473 210.175 4.96278C210.748 4.91641 210.891 4.87236 211.035 5.08803C211.179 5.30371 211.752 5.25735 212.182 5.21176C212.468 5.16693 211.608 5.04167 212.181 4.99531C212.467 4.95048 212.897 5.03476 213.327 5.03245C214.043 5.02861 214.902 4.89413 215.332 4.97841C216.049 5.10444 216.621 4.9282 217.338 4.96765C218.341 5.00556 218.914 5.00249 219.344 5.17334C219.631 5.25839 219.775 5.3442 220.062 5.42924C220.205 5.47176 220.492 5.47022 220.635 5.46946C220.778 5.4254 220.921 5.33805 220.778 5.29553C220.634 5.20972 220.204 5.12545 220.776 5.03579C221.635 4.9446 222.637 4.76607 223.354 4.8921C223.784 4.97637 224.071 4.93154 224.357 4.88672C225.073 4.88288 224.787 5.05757 224.788 5.18744C224.645 5.2315 224.502 5.27556 224.216 5.36367C224.216 5.36367 224.216 5.36367 224.216 5.32038C224.073 5.32115 223.929 5.32192 223.93 5.36521C223.93 5.36521 223.93 5.4085 223.93 5.45179C224.073 5.45102 224.073 5.40773 224.216 5.36367C224.359 5.27632 224.502 5.23227 224.788 5.18744C225.075 5.1859 225.361 5.22766 225.504 5.1836C226.792 4.91695 226.792 4.91695 228.226 5.08242C228.656 5.12341 229.373 5.29272 229.514 4.94564C229.514 4.94564 230.087 4.89928 230.231 4.9418C230.517 4.98355 230.661 5.11265 230.948 5.19769C231.091 5.11035 231.234 4.97971 231.52 4.93488C232.093 4.88852 232.809 4.84139 233.382 4.83832C234.241 4.83371 235.102 5.00226 235.96 4.7812L236.103 4.78043C236.821 5.12291 237.537 4.9892 238.396 4.85472C238.539 4.81066 239.541 4.76199 239.4 5.06579C239.401 5.23895 240.117 5.19182 240.546 5.18951C240.976 5.14392 241.405 5.01174 241.834 4.87957C241.977 4.8788 242.264 4.87727 242.264 4.92056C242.408 5.04966 241.836 5.22589 242.552 5.26533C243.269 5.30478 243.986 5.43081 244.701 5.21052C244.844 5.12317 245.13 5.07835 245.416 5.03352C245.702 4.94541 246.132 4.9431 246.419 5.02814C246.706 5.15648 247.136 5.15417 247.279 5.06682C247.85 4.80401 248.567 4.80017 249.426 4.75227C250.428 4.70361 251.001 4.61396 251.862 4.82579C252.149 4.91084 252.865 4.90699 253.151 4.86217C254.296 4.68286 255.013 4.7656 256.017 4.93338C256.16 4.9759 257.019 4.928 257.019 4.88472C257.304 4.49357 258.165 4.83528 258.594 4.7464C259.169 5.00306 260.028 4.91187 260.888 4.95055C261.604 4.94671 262.178 5.16008 263.037 5.02561C263.323 4.98078 263.896 5.021 264.326 5.06198C265.186 5.10066 266.189 5.18186 267.048 5.13396C268.051 5.04201 268.625 5.25538 269.341 5.20825C269.914 5.20518 270.487 5.15881 271.059 5.06916C271.775 4.93545 272.777 4.75692 273.781 5.01128C274.068 5.05303 274.64 4.92009 275.213 4.91701C275.786 4.91394 276.359 4.91087 276.789 4.95185C277.219 5.03613 277.506 5.07788 277.935 4.94571C278.078 4.90165 278.651 4.89858 278.937 4.85375C279.081 4.85298 279.224 4.8955 279.367 4.89474C279.224 4.93879 279.081 4.93956 278.938 4.98362C278.795 5.02768 278.652 5.11502 278.366 5.15985C278.509 5.20237 278.653 5.24489 278.796 5.24412C280.086 5.2805 281.375 5.36016 282.52 5.05099C283.093 5.17779 283.667 5.26129 284.383 5.21416C284.526 5.21339 284.669 5.12605 284.812 5.08199C285.817 5.42293 286.675 5.15858 287.82 4.97928C287.82 5.02257 287.534 5.06739 287.534 5.06739C287.678 5.19649 287.821 5.2823 287.965 5.4114C288.108 5.36735 288.252 5.36658 288.251 5.32329C288.251 5.23671 288.107 5.10761 287.82 4.97928C289.251 4.75515 289.251 4.75515 290.398 4.87887C290.541 4.8781 290.685 4.96391 290.685 4.92062C291.973 4.74055 293.407 4.94932 294.552 4.85659C295.125 4.81023 295.269 4.89604 295.555 4.8945C296.702 4.97493 297.848 4.9255 298.849 4.66039C299.421 4.52744 299.851 4.52514 300.282 4.69599C300.425 4.73851 300.426 4.82509 300.426 4.86838C300.569 4.82432 300.568 4.73774 300.711 4.69369C300.997 4.56228 301.427 4.55998 301.571 4.68908C301.715 4.77489 301.859 4.94728 301.859 5.03386C301.86 5.16372 302.003 5.20625 302.29 5.11813C302.433 5.07407 302.575 4.98673 302.575 4.94344C302.575 4.90015 302.431 4.85763 302.288 4.85839C302.145 4.81587 302.144 4.77258 302.001 4.68677C302.144 4.686 302.43 4.68447 302.574 4.6837C303.147 4.68063 303.434 4.80896 303.578 5.02464C303.578 5.02464 303.578 5.02464 303.578 4.98135C303.435 4.98212 303.292 4.98288 303.292 5.02617C303.292 5.02617 303.292 5.06946 303.292 5.11275C303.436 5.11198 303.435 5.0687 303.578 5.02464C303.864 4.89323 304.15 4.76183 304.436 4.76029C305.009 4.71393 305.584 5.05717 306.299 4.79359C306.728 4.66142 307.444 4.61429 308.017 4.61122C308.733 4.60738 309.45 4.60353 310.167 4.72956C310.74 4.81307 311.886 4.8935 312.172 4.7621C313.317 4.49621 314.321 4.66399 315.323 4.65861C315.467 4.65785 315.897 4.74212 315.897 4.78541C315.898 4.95857 316.328 4.95626 316.614 4.91144C317.473 4.73367 318.475 4.685 319.478 4.72291C319.908 4.72061 320.48 4.63096 320.91 4.62865C321.34 4.62635 321.913 4.62328 322.2 4.70832C322.774 4.8784 323.059 4.57384 323.489 4.65811C323.776 4.69987 324.636 4.78184 324.634 4.47881C324.634 4.47881 325.35 4.43168 325.637 4.43014C327.786 4.5052 329.791 4.40786 331.94 4.39634C332.083 4.39557 332.226 4.43809 332.37 4.43732C333.086 4.52006 333.803 4.6028 334.375 4.38328C334.804 4.20782 335.377 4.29132 335.807 4.28902C336.38 4.32923 336.81 4.37022 337.24 4.36791C337.956 4.36407 338.529 4.361 339.246 4.35716C339.819 4.35409 340.392 4.3943 341.108 4.39046C341.681 4.38739 342.397 4.29697 342.684 4.33872C343.258 4.50881 343.543 4.3774 343.973 4.33181C344.832 4.19733 344.977 4.62946 345.979 4.45092C346.408 4.36204 347.411 4.35666 347.841 4.44093C348.415 4.52444 348.558 4.52367 348.987 4.43479C349.703 4.30108 350.562 4.20989 351.422 4.24857C351.995 4.28878 352.712 4.32823 353.427 4.23781C353.857 4.19222 354.717 4.31748 355.291 4.40098C355.434 4.4435 355.721 4.57184 355.864 4.4412C356.148 4.09335 357.44 4.47604 357.581 4.17224C358.156 4.51549 359.014 4.12127 359.73 4.20401C360.447 4.28675 361.306 4.10898 362.023 4.2783C362.74 4.44761 363.598 4.09669 364.458 4.30853C364.602 4.35105 365.318 4.26063 365.891 4.21426C366.32 4.16867 366.893 4.07902 367.036 4.12154C367.897 4.37667 368.899 4.28471 369.759 4.32339C370.189 4.36437 371.049 4.44634 371.047 4.14332L371.19 4.09926C372.48 4.22221 373.911 3.9548 375.058 4.07852C375.775 4.16126 376.347 4.0716 376.921 4.11182C377.494 4.15204 377.781 4.28037 378.64 4.18918C379.213 4.14282 379.929 4.0524 380.645 4.00527C380.788 4.0045 380.931 3.96044 381.074 3.95967C381.935 4.08493 383.08 3.99221 383.797 4.07494C384.657 4.15691 385.229 4.02397 385.946 4.10671C386.663 4.18945 387.379 4.18561 388.238 4.181C388.382 4.18023 388.668 4.09211 388.811 4.04805C388.954 4.004 389.383 3.91511 389.526 3.95763C390.817 4.21046 392.25 4.24606 393.681 4.06522C393.968 4.0204 394.542 4.23377 394.971 4.18818C395.401 4.14258 395.687 4.05447 396.117 4.18203C396.404 4.22378 397.12 4.13336 397.264 4.21917C397.694 4.34674 398.267 4.34367 398.697 4.34136C400.272 4.20304 401.992 4.32369 403.568 4.35853C403.854 4.35699 404.14 4.31217 404.427 4.26734C406.432 4.12672 408.294 4.11673 410.301 4.32242C410.731 4.36341 411.303 4.27375 411.59 4.3588C412.021 4.48636 412.594 4.48329 413.023 4.48098C413.453 4.47868 413.882 4.3465 414.313 4.51736C414.313 4.51736 414.599 4.51582 414.743 4.51505C416.03 4.20511 417.464 4.37059 418.753 4.36367C419.612 4.35906 420.615 4.3104 421.618 4.30502C422.62 4.29964 423.481 4.46819 424.483 4.24636C424.769 4.15825 425.486 4.28428 426.059 4.2812C427.205 4.31835 428.208 4.31297 429.353 4.26353C430.499 4.2141 431.787 4.03403 433.078 4.33014C433.509 4.41441 434.655 4.49484 435.37 4.27456C436.66 4.4408 438.091 4.0868 439.238 4.34039C439.525 4.42543 440.242 4.42159 440.671 4.28942C441.243 4.19977 441.387 4.28558 441.388 4.45874C441.389 4.71847 441.533 4.76099 442.248 4.62728C442.535 4.58246 442.821 4.49434 443.107 4.44952L444.253 4.48666C444.826 4.4403 445.399 4.39394 445.972 4.39086C446.402 4.38856 446.832 4.51612 447.262 4.47053C448.264 4.37857 448.981 4.46131 449.555 4.71797C449.698 4.76049 450.128 4.75819 450.415 4.79994C450.415 4.79994 450.415 4.79994 450.272 4.80071C450.272 4.844 450.272 4.88729 450.415 4.88652C450.415 4.88652 450.559 4.88575 450.702 4.88498C450.702 4.84169 450.558 4.84246 450.415 4.79994C450.271 4.71413 450.414 4.67007 450.414 4.58349C450.557 4.58273 450.7 4.58196 450.844 4.62448L450.987 4.667C452.991 4.35322 454.998 4.51562 457.003 4.54815C457.147 4.54739 457.433 4.54585 457.576 4.50179C458.292 4.36808 458.006 4.54278 458.007 4.62936C458.007 4.67265 458.15 4.71517 458.294 4.7144C459.153 4.62321 460.012 4.53202 460.586 4.78868C461.302 4.65498 462.162 4.73694 462.877 4.64652C463.307 4.60093 463.593 4.5561 464.024 4.68367C464.167 4.72619 464.597 4.72388 464.884 4.76564C466.46 4.88705 468.178 4.70468 469.612 5.00002C469.756 5.04254 470.471 4.77896 470.616 5.08122C470.472 5.08199 470.329 5.12605 470.186 5.12682C470.33 5.16934 470.473 5.21186 470.473 5.21186C470.761 5.47006 471.763 5.3781 472.194 5.59224C472.625 5.80639 473.199 5.93318 473.2 6.14963C473.201 6.36608 474.205 6.57715 473.203 6.79897C472.774 6.88785 473.921 7.05487 473.206 7.18858C472.49 7.32228 473.207 7.44831 473.208 7.57818C473.066 7.96855 473.069 8.40145 472.784 8.79259C472.643 9.05309 471.497 9.14582 471.499 9.44884C471.499 9.49213 470.924 9.14889 470.782 9.45268C470.783 9.53926 470.927 9.66836 471.07 9.75417C471.215 9.92656 471.072 10.0139 470.355 9.97446C470.069 9.976 469.639 10.0216 469.64 10.0649C469.784 10.3671 469.068 10.371 468.352 10.3315C467.779 10.3346 467.205 10.2078 466.633 10.384C466.49 10.4281 466.06 10.3871 465.916 10.3446C465.343 10.2178 464.769 10.1776 464.054 10.3113C463.481 10.4009 463.052 10.4032 462.621 10.2757L462.334 10.2339C462.049 10.3653 461.763 10.4535 461.333 10.5856C460.903 10.5014 460.616 10.2864 460.186 10.2887C459.613 10.2918 459.184 10.5106 458.753 10.2531C457.895 10.4742 456.891 10.2198 456.031 10.311C454.743 10.4045 453.883 10.3658 453.022 10.1107C452.879 10.0682 452.449 10.0272 452.162 10.072C451.16 10.164 450.157 10.2127 449.442 10.3897C448.727 10.5234 448.583 10.3943 448.153 10.3533C447.149 10.2288 445.859 10.1491 444.714 10.1986C444.141 10.2016 443.568 10.248 442.995 10.2511C442.422 10.2541 441.705 10.1281 441.133 10.3476C440.702 10.1768 440.272 10.1358 439.7 10.312C439.7 10.312 439.414 10.3136 439.271 10.3143C438.411 10.2757 437.693 9.97647 436.691 10.1983C435.976 10.332 434.972 10.1209 434.113 10.2987C433.827 10.3435 433.254 10.3033 432.824 10.2623C431.964 10.2236 430.96 10.0992 430.388 10.2321C429.53 10.4099 428.954 10.0233 428.096 10.2011C427.667 10.3333 426.52 10.2095 425.661 10.2142C425.088 10.2172 424.657 10.133 424.228 10.1353C424.084 10.136 423.798 10.0943 423.798 10.0943C422.653 10.3169 421.363 10.2372 420.217 10.2001C419.644 10.2031 418.785 10.3376 418.641 10.2518C418.067 10.0384 417.495 10.3012 416.922 10.2177C416.349 10.1775 415.776 10.2239 415.203 10.2702C414.487 10.3174 413.484 10.3227 412.767 10.1967C411.334 9.98796 409.901 9.99564 408.326 10.0907C407.037 10.1409 405.747 10.0179 404.458 10.0248C403.455 9.98692 402.451 9.90572 401.45 10.0843C400.734 10.218 400.159 9.87472 399.3 10.0092C398.871 10.0981 397.868 10.1035 397.151 9.89086C397.007 9.84834 396.578 9.89393 396.292 9.93876C395.433 10.0299 394.573 10.0778 393.713 10.0392C392.854 10.0005 391.993 9.83193 391.135 10.0963C390.704 9.83885 389.559 10.0614 388.985 9.80478L388.698 9.80631C387.84 10.0274 386.837 9.94617 385.691 9.95232C385.118 9.95539 384.689 10.1741 384.258 9.91671C384.258 9.91671 384.114 9.87419 384.115 9.91748C382.97 10.1401 381.679 9.88725 380.39 9.98074C379.961 10.0263 379.531 10.0719 379.101 10.0309C378.385 9.9915 377.669 10.0819 376.952 9.9126C376.665 9.87085 375.807 10.0919 375.377 10.0942C374.661 10.0981 373.801 10.0161 373.084 9.97663C372.081 9.93872 371.078 9.90081 370.075 9.8629C369.932 9.86367 369.646 9.95178 369.503 9.95255C368.5 9.95793 367.64 9.91925 366.638 10.0112C365.779 10.1024 364.775 9.89132 363.773 10.0266C363.63 10.0273 363.342 9.89901 363.056 9.85725C362.625 9.72969 362.339 9.73123 362.053 9.90592C362.053 9.94921 361.624 9.9948 361.337 9.99634C360.478 10.0442 359.474 9.78988 358.473 10.055C357.755 9.7991 357.039 9.84623 356.18 9.98071C355.319 9.639 354.604 9.90258 353.888 10.0796C353.458 9.95202 353.173 10.2999 352.599 10.0865C352.312 10.0015 351.453 10.0493 351.166 9.96431C350.736 9.83674 350.449 9.79499 350.45 10.0114L350.307 10.0555C349.877 10.0578 349.447 10.0601 349.017 10.0191C348.587 9.97814 348.157 9.85057 348.014 9.89463C347.585 9.98351 347.298 9.98505 346.868 9.85749C346.58 9.72916 345.721 9.73376 346.723 9.55523C346.866 9.55446 346.866 9.46788 347.009 9.42382C346.865 9.42459 346.579 9.38284 346.579 9.38284C346.15 9.51501 345.576 9.43151 345.147 9.65026C344.576 9.95636 343.286 9.79011 342.571 9.96711C342.569 9.70738 341.853 9.71122 341.279 9.62771C340.419 9.54574 339.704 9.63616 339.132 9.89897C338.989 9.94303 338.846 9.98709 338.703 9.98786C338.56 9.98862 338.13 9.99093 337.986 9.9917C336.983 9.78063 335.837 9.91664 334.835 10.0086C334.549 10.0534 333.976 10.0565 333.832 9.97069C333.115 9.75808 331.969 9.76423 331.396 9.81059C330.68 9.85772 330.106 9.77422 329.82 9.81904C329.247 9.90869 328.674 9.82519 328.101 9.82826C327.385 9.8321 327.384 9.74552 327.957 9.61258C327.813 9.57006 327.67 9.52754 327.526 9.52831C326.666 9.44634 325.807 9.53753 325.092 9.71452C324.949 9.75858 324.949 9.84516 324.949 9.84516C325.093 9.88768 325.379 9.88615 325.523 9.92867C325.38 9.97273 325.093 9.97426 324.95 10.0183C324.378 10.1513 323.948 10.1969 323.375 10.0701C322.658 9.90074 321.511 9.8636 320.796 9.95402C319.65 10.1333 319.363 9.9617 318.789 9.79162C318.645 9.70581 318.215 9.66482 317.929 9.62307C317.785 9.62384 317.642 9.6679 317.499 9.66866C316.927 9.84489 316.212 10.0219 315.352 10.0265C314.922 10.0288 314.492 9.98782 314.063 10.0334C313.633 10.0357 313.203 9.99474 312.773 9.99704C312.344 9.99935 311.915 10.1748 311.627 9.9599L311.484 9.96067C311.198 10.0488 310.769 10.1377 310.483 10.2258C310.339 10.14 310.052 10.0116 309.908 9.92583C309.908 9.92583 309.621 9.92736 309.478 9.92813C308.763 10.0618 307.044 10.2442 306.758 10.2458C306.185 10.2488 305.898 10.1205 305.754 9.94811C305.61 9.8623 305.753 9.77495 305.752 9.68837C305.608 9.60256 305.322 9.56081 305.178 9.51829C305.035 9.60563 305.036 9.69221 304.893 9.77956C304.893 9.82285 304.894 9.86614 304.894 9.90943C304.608 9.95425 304.321 9.99908 304.035 10.0872C303.892 10.088 303.749 10.132 303.606 10.1328C303.032 10.0493 302.172 9.96731 301.743 10.0129C301.742 9.96962 301.742 9.92633 302.028 9.75163C302.171 9.66429 302.028 9.75163 301.885 9.83898C301.885 9.83898 302.029 9.8815 302.029 9.92479C302.315 9.83668 302.458 9.79262 302.744 9.7045C302.601 9.70527 302.457 9.66275 302.028 9.75163C301.742 9.92633 301.599 9.9271 301.456 9.92787C301.599 9.97039 301.743 10.0129 301.743 10.0129C301.743 10.1428 301.602 10.4033 300.884 10.234C300.454 10.1497 299.309 10.329 299.45 9.93862C299.593 9.89456 299.736 9.85051 300.022 9.76239C299.306 9.67965 298.732 9.59615 298.015 9.47012C298.015 9.51341 298.015 9.51341 298.016 9.5567C297.874 9.8172 297.874 9.86049 297.3 9.7337C296.44 9.56515 295.724 9.74215 295.152 9.8318C294.436 9.96551 294.437 10.0088 293.72 9.92606C293.577 9.92683 293.433 9.9276 293.29 9.92837C292.86 9.93067 292.431 9.93298 292.001 9.89199C291.571 9.85101 290.997 9.81079 290.71 9.72575C290.28 9.5549 289.994 9.77288 289.565 9.77518C288.992 9.82155 288.561 9.52082 288.418 9.65146C288.276 9.86868 287.702 9.78517 287.416 9.87329C286.844 10.0062 286.844 9.91965 286.843 9.78978C286.843 9.74649 286.556 9.74803 286.413 9.70551C286.415 10.0951 285.267 9.84152 284.695 9.97446C284.123 10.1507 283.691 9.80668 283.118 9.76647C282.975 9.76723 282.974 9.63737 282.974 9.59408C282.831 9.63813 282.831 9.68142 282.688 9.72548C282.402 9.85688 282.117 10.0316 281.399 9.81897C281.399 9.77568 280.826 9.82205 280.827 9.86534C280.542 10.2132 279.538 10.0887 279.394 9.9596C279.107 9.7014 278.248 9.83588 277.674 9.75237C276.958 9.66963 276.385 9.6727 276.669 9.36814C276.669 9.36814 276.526 9.32562 276.382 9.2831C276.239 9.32716 276.24 9.37045 276.096 9.37122C275.526 9.80718 275.526 9.80718 273.949 9.59919C273.519 9.5582 273.376 9.55897 273.09 9.73366C272.805 9.99494 272.519 10.0398 271.802 9.91374C271.371 9.82946 271.084 9.74442 270.798 9.70267C270.654 9.66015 270.224 9.66245 270.224 9.66245C269.224 10.0574 269.078 9.62531 268.648 9.49774C268.218 9.41347 267.788 9.37248 267.358 9.3315C267.214 9.33227 267.071 9.37633 266.928 9.37709C266.785 9.46444 266.499 9.55256 266.356 9.6399C265.785 9.98929 265.499 9.99083 264.494 9.69318C263.92 9.5231 263.632 9.22161 262.486 9.27104C261.77 9.27488 262.2 9.186 262.486 9.09788L262.342 9.01207C262.199 9.01284 262.055 8.97032 261.912 9.01438C261.769 9.01515 261.769 9.05844 261.626 9.10249C261.484 9.23313 261.771 9.44804 261.198 9.4944C260.912 9.53923 260.482 9.41166 260.052 9.37068C259.908 9.37145 259.765 9.41551 259.766 9.4588C259.337 9.72084 259.051 9.80895 258.477 9.63887C257.904 9.51207 256.901 9.56074 256.899 9.21442C256.898 8.99798 256.182 9.0884 256.04 9.21903C255.754 9.39373 255.468 9.52513 254.752 9.4424C254.608 9.44316 254.608 9.35659 254.608 9.3133C254.894 9.22518 255.037 9.18112 254.463 9.14091C254.32 9.14167 254.034 9.1865 254.034 9.22979C254.035 9.35966 253.606 9.49183 254.323 9.57457C254.466 9.5738 254.61 9.7029 254.753 9.74542C254.467 9.79025 254.181 9.83507 254.037 9.83584C252.891 9.84199 252.46 9.62785 252.173 9.36965C252.172 9.32636 252.029 9.28383 252.029 9.24055C251.886 9.2846 251.743 9.32866 251.743 9.37195C251.6 9.4593 251.744 9.54511 251.601 9.63245C251.601 9.67574 251.315 9.76386 251.172 9.72134C250.455 9.68189 249.453 9.77385 248.879 9.56047C248.592 9.47543 246.156 9.4452 245.869 9.40345C245.01 9.36477 245.442 9.83865 244.295 9.67164C243.865 9.58736 243.149 9.67778 242.576 9.72414C241.287 9.81764 239.998 9.78126 238.709 9.78818C238.279 9.79048 237.706 9.75026 237.707 9.96671C237.707 9.96671 237.134 10.0131 236.991 10.0138C236.416 9.75718 235.988 9.93264 235.558 10.0215C235.415 10.0656 234.843 10.1119 234.843 10.1119C234.268 9.85528 233.696 9.98822 233.267 10.1204C233.124 10.1645 232.98 10.1219 232.837 10.1227C232.837 10.0361 232.836 9.99283 233.122 9.86143C233.122 9.81814 233.122 9.86143 232.979 9.8622C232.979 9.90549 233.122 9.90472 233.123 9.94801C233.266 9.90395 233.266 9.90395 233.409 9.85989C233.409 9.85989 233.265 9.81737 233.122 9.86143C232.263 9.95262 231.69 9.99898 230.974 10.0028C230.258 10.0067 230.258 9.96337 230.829 9.74385C231.116 9.74231 231.689 9.82582 231.974 9.56455C231.974 9.52126 231.974 9.56455 231.831 9.56532C231.831 9.60861 231.975 9.60784 231.975 9.65113C232.118 9.60707 232.118 9.60707 232.261 9.56301C232.261 9.56301 232.117 9.52049 231.974 9.56455C231.402 9.6542 230.971 9.52664 230.829 9.74385C230.4 9.78945 230.398 9.48642 229.826 9.66265C229.397 9.83811 228.824 9.84119 228.251 9.80097C227.535 9.76152 227.105 9.76383 227.106 10.0669C227.107 10.24 225.961 10.2462 225.817 10.0738C225.529 9.6857 224.956 9.86193 224.384 9.95158C223.954 9.99717 223.525 10.0428 223.239 10.1309C222.81 10.2198 222.524 10.3079 222.522 10.0481C222.522 10.0049 222.092 9.96387 221.805 9.92212C220.944 9.71028 219.512 9.71796 219.509 9.24178C219.509 9.19849 219.079 9.2008 218.936 9.15827C218.793 9.15904 218.649 9.15981 218.506 9.16058C218.506 9.20387 218.363 9.24793 218.507 9.29045C218.938 9.50459 219.368 9.67544 219.656 9.89035C219.8 9.93288 219.514 10.021 219.514 10.1076C219.227 10.0658 219.084 10.0233 218.797 9.93825C218.653 9.89573 218.51 9.85321 217.793 9.68389C217.363 9.64291 217.65 9.72795 217.936 9.7697C218.08 9.76894 218.223 9.72488 218.366 9.72411C218.079 9.59578 217.935 9.50997 217.648 9.38164C217.505 9.42569 217.362 9.46975 217.649 9.64137C218.366 9.81069 218.51 9.85321 218.653 9.89573C218.51 9.93979 218.368 10.0271 218.224 10.0279C216.792 9.9923 215.359 9.95669 213.926 9.92108C213.64 9.92262 213.353 9.83758 213.066 9.79583C212.636 9.75484 211.919 9.71539 211.634 9.8468C211.205 10.0655 210.776 10.1544 209.916 10.0725C209.342 10.0322 208.628 10.3824 208.339 9.95105C208.339 9.86447 207.336 9.78327 206.619 9.74382C206.046 9.7036 206.19 9.87599 206.191 10.0059C205.905 10.1806 205.905 10.1806 205.474 9.92312C205.474 9.87983 205.474 9.92312 205.331 9.92389C205.331 9.96718 205.474 9.96641 205.474 10.0097C205.617 9.96564 205.617 9.96564 205.76 9.92158C205.76 9.92158 205.617 9.87906 205.474 9.92312C204.759 10.1001 204.186 10.1032 204.041 9.88751C203.897 9.8017 204.04 9.71436 204.04 9.62778C204.04 9.62778 203.61 9.58679 203.61 9.63008C203.467 9.67414 203.467 9.76072 203.324 9.80478C203.181 9.76226 203.181 9.71897 203.037 9.67645C203.036 9.50329 202.464 9.54965 202.177 9.55119C202.034 9.55195 201.604 9.64084 201.605 9.68413C201.749 9.89981 201.033 9.90365 200.603 9.94924C200.46 9.95001 200.317 9.95078 200.174 9.95155C200.027 9.38955 199.027 9.9144 198.454 9.87419C198.024 9.8332 197.596 10.1385 196.879 10.0558C196.306 10.0156 195.876 10.0612 196.018 9.80067C196.018 9.71409 195.874 9.58499 195.587 9.49995C195.3 9.4149 194.87 9.37392 194.728 9.54785C194.729 9.80758 194.443 9.8957 193.583 9.81373C193.01 9.77351 192.437 9.81987 192.007 9.7356C191.433 9.60881 191.29 9.60957 191.291 9.82602C191.148 9.82679 191.005 9.82756 190.861 9.78504C190.575 9.78657 190.144 9.7023 190.145 9.74559C188.857 10.1421 187.423 9.80347 186.134 9.85368C185.561 9.85675 186.418 9.41925 185.417 9.68436C184.701 9.86136 184.129 9.90772 183.554 9.69435C183.268 9.60931 182.551 9.61315 183.125 9.82652C182.982 9.87058 182.839 9.91464 182.696 9.91541C181.98 9.91925 181.12 9.88057 180.26 9.7986C180.117 9.79937 180.26 9.7986 180.26 9.84189C180.404 9.84112 180.403 9.79783 180.547 9.79706C180.403 9.75454 180.403 9.75454 180.26 9.71202C180.26 9.71202 180.117 9.75608 180.26 9.7986C180.404 9.9277 180.261 10.015 180.262 10.1016C179.975 10.0599 179.545 10.0622 179.545 10.0189C179.4 9.75992 178.684 9.72047 178.11 9.63696C177.537 9.59675 177.107 9.59905 176.822 9.81704C176.394 10.1224 176.251 10.1231 174.961 10.0868C174.531 10.0891 174.101 10.0481 173.672 10.0504C173.528 10.0512 173.385 10.0086 173.385 9.96534C173.528 9.96457 173.814 9.91975 173.957 9.91898C174.101 9.87492 174.243 9.78757 174.386 9.74352C174.1 9.70176 173.813 9.66001 173.67 9.70407C172.811 9.75197 172.238 9.9282 172.383 10.2305C172.384 10.2737 172.241 10.3178 172.097 10.3186C172.097 10.2753 171.954 10.2328 171.954 10.2328C171.953 10.1895 171.953 10.1462 171.953 10.1029C171.952 9.92974 171.951 9.79987 171.95 9.62671C171.378 9.67307 170.661 9.63362 170.088 9.72328C169.373 9.85698 168.944 9.98916 168.084 9.90719C167.654 9.8662 166.938 9.95662 167.08 9.65283C167.08 9.65283 166.076 9.52834 165.647 9.57393C165.074 9.66359 164.645 9.75247 164.214 9.53833C164.214 9.53833 163.784 9.54063 163.641 9.58469C163.498 9.62875 163.355 9.71609 163.213 9.80344C162.495 9.54755 161.781 9.94099 161.351 9.85672C160.633 9.6874 159.918 9.77782 159.201 9.69508C159.058 9.69585 159.057 9.56598 159.057 9.52269C158.913 9.3503 158.483 9.43919 157.05 9.27371C156.046 9.14922 156.19 9.19174 156.333 9.23427C156.763 9.27525 157.193 9.27294 157.623 9.31393C157.766 9.31316 157.767 9.52961 158.196 9.35415C158.339 9.31009 158.196 9.22428 158.052 9.18176C157.478 8.92509 156.475 8.93047 157.05 9.317C158.197 9.5273 158.341 9.61311 158.484 9.65564C158.198 9.65717 157.912 9.702 157.625 9.70353C157.052 9.62003 156.478 9.44994 155.763 9.71352C155.62 9.80087 155.477 9.84493 155.334 9.93227C155.334 9.84569 155.19 9.75988 155.19 9.67331C155.331 9.32622 154.187 9.76526 154.186 9.50553C153.9 9.55035 153.327 9.55342 153.614 9.72505C153.902 9.93996 153.042 9.94457 153.186 10.117C153.043 10.1177 152.757 10.1193 152.614 10.1633C152.613 10.12 152.613 10.0334 152.613 10.0334C153.042 9.90128 152.612 9.94687 152.326 9.90512C151.895 9.82084 151.179 9.73811 152.037 9.56034C151.894 9.47453 151.607 9.43277 151.463 9.34696C151.32 9.39102 151.32 9.43431 151.177 9.47837C151.034 9.52243 150.748 9.52396 150.748 9.52396C150.46 9.35234 149.745 9.44276 149.315 9.40178C149.314 9.3152 149.314 9.22862 149.456 9.14127C150.316 9.13666 149.885 8.92252 150.028 8.79188L149.741 8.75013C149.311 8.79573 149.025 8.88384 148.596 8.97272C148.453 8.97349 148.31 8.97426 147.88 8.93328C147.736 8.93404 147.88 8.93328 147.88 8.97657C148.023 8.9758 148.023 8.93251 148.166 8.93174C148.023 8.88922 148.023 8.88922 147.879 8.8467C147.879 8.8467 147.736 8.89076 147.88 8.93328C148.166 9.01832 148.31 9.06084 148.454 9.14665C148.741 9.23169 149.028 9.36003 149.315 9.44507C148.887 9.79369 148.887 9.79369 147.741 9.75654C147.597 9.75731 147.454 9.71479 147.454 9.71479C146.738 9.76192 146.022 9.76576 145.449 9.76884C144.589 9.73016 143.871 9.47426 143.013 9.7819C142.584 9.91407 141.581 9.83287 141.15 9.61873C141.006 9.53291 140.577 9.53522 140.29 9.49347C140.29 9.58005 140.577 9.66509 140.434 9.66586C140.148 9.75397 139.862 9.7988 139.576 9.84362C139.432 9.75781 139.288 9.672 139.43 9.49808C139.43 9.45479 139.43 9.49808 139.287 9.49884C139.287 9.54213 139.431 9.54137 139.431 9.58466C139.574 9.5406 139.574 9.5406 139.717 9.49654C139.717 9.49654 139.573 9.45402 139.43 9.49808C139.145 9.62948 138.858 9.67431 138.859 9.7176C138.859 9.89075 139.432 9.8011 139.719 9.84286C139.719 9.92943 139.719 9.97272 139.577 10.0601C139.433 10.0608 139.29 10.0616 139.147 10.0191C138.86 9.97733 138.43 9.97964 138.143 9.93789C137.57 9.85438 138.429 9.80648 138.286 9.72067C137.998 9.59234 137.139 9.64024 136.997 9.81416C136.854 9.98809 136.712 10.0754 136.138 10.0352C135.708 9.99423 135.279 9.99654 134.849 9.99884C134.419 10.0011 134.275 9.91534 134.275 9.78547C134.131 9.65637 133.845 9.7012 133.845 9.83106C133.703 10.005 133.416 9.96324 132.986 9.92225C132.126 9.7537 131.265 9.62845 130.263 9.59053C130.119 9.5913 129.976 9.50549 129.832 9.46297C129.114 9.20708 128.541 9.16686 127.826 9.38715C127.54 9.43197 127.397 9.51932 127.254 9.60667C127.11 9.52086 127.11 9.43428 126.966 9.34847L126.823 9.30595C126.679 9.22014 126.535 9.13433 126.25 9.26573C126.107 9.30979 125.677 9.31209 125.964 9.44042C126.107 9.48295 125.965 9.61358 125.965 9.65687C125.679 9.65841 125.392 9.65994 125.249 9.61742C124.675 9.49063 124.245 9.36306 123.243 9.5416C122.384 9.67608 121.094 9.6397 120.09 9.42863C119.373 9.30261 118.8 9.17581 117.94 9.18042C117.081 9.18503 117.081 9.18503 117.225 9.444C117.226 9.48729 117.369 9.52981 117.369 9.5731C117.37 9.65968 117.227 9.74702 117.084 9.83437C116.797 9.79262 116.511 9.79415 116.367 9.75163C115.937 9.66736 115.793 9.40839 115.221 9.58462C114.362 9.76239 114.218 9.54671 113.787 9.41915C113.643 9.33334 113.643 9.20347 113.499 9.07437C113.213 9.20577 112.927 9.33718 112.498 9.42606C112.069 9.51494 112.499 9.55593 112.499 9.64251C112.643 9.8149 112.644 9.94477 112.071 10.0344C111.928 10.0352 111.785 10.036 111.642 10.0367C111.783 9.73293 110.924 9.78083 110.494 9.78313C109.635 9.78774 109.06 9.48779 108.201 9.66556C108.201 9.66556 107.915 9.6238 107.771 9.58128C107.772 9.66786 107.772 9.79773 107.916 9.79696C108.775 9.83564 108.633 9.92299 108.06 10.0126C107.487 10.1023 106.915 10.1919 106.913 9.75905C106.912 9.71576 106.769 9.75982 106.77 9.80311C106.77 9.8464 106.77 9.88969 106.77 9.93297C106.913 9.88892 107.2 9.88738 107.2 9.84409C107.199 9.8008 107.199 9.71422 106.913 9.75905C106.34 9.89199 105.623 9.76596 105.48 9.81002C104.908 9.94296 104.477 9.72882 104.191 9.73036C103.761 9.77595 103.332 9.90812 102.903 10.0403C102.903 10.0403 102.616 9.99854 102.473 9.99931C102.186 9.95756 102.042 9.87175 102.472 9.82615C102.758 9.78133 103.045 9.77979 103.188 9.73573C103.331 9.73497 103.474 9.69091 103.474 9.69091C103.331 9.64839 103.187 9.60587 103.187 9.60587C102.471 9.653 101.467 9.35535 101.182 9.74649C100.466 9.79362 99.75 9.79746 99.1779 9.97369C99.1779 9.97369 98.8912 9.93194 98.7477 9.88942C98.3165 9.63199 97.4573 9.67989 96.741 9.68373C96.3112 9.68603 95.7389 9.81897 95.3082 9.64812C95.3082 9.64812 95.022 9.69295 94.8789 9.737C95.4531 9.95038 94.8803 9.99674 94.4499 9.86918C94.0197 9.7849 93.7329 9.74315 93.3029 9.70216C92.8732 9.70447 92.4432 9.66348 92.3011 9.8807C92.3016 9.96728 91.4421 9.97189 91.4414 9.84202C91.4402 9.62557 91.0104 9.62788 90.5807 9.63018C89.7214 9.67808 88.7184 9.64017 88.1463 9.8164C87.2877 9.99417 86.8575 9.90989 86.2838 9.7831C85.8536 9.69882 85.4234 9.61455 84.9931 9.53028C84.8499 9.53104 84.5634 9.53258 84.5634 9.53258C84.4218 9.83638 83.8478 9.66629 83.4181 9.6686C82.8451 9.67167 82.4153 9.67397 82.9892 9.84406L82.7032 9.93217C82.273 9.8479 81.4137 9.8958 81.27 9.80999C80.1214 9.33995 78.834 9.69318 77.5449 9.74338C77.2584 9.74492 77.1159 9.87556 76.8294 9.87709C76.5429 9.87863 75.8271 9.96905 75.8257 9.70931C75.8252 9.62273 75.538 9.4944 75.2513 9.45265C75.1078 9.41013 74.6783 9.45572 74.5353 9.49978C74.392 9.50055 74.2492 9.58789 74.1062 9.63195C74.2495 9.63118 74.5362 9.67294 74.6794 9.67217C74.8229 9.71469 75.1094 9.71315 75.2529 9.75567C75.1099 9.79973 74.9669 9.84379 74.8236 9.84456C73.9641 9.84917 73.1039 9.72391 72.2453 9.90168C72.2453 9.90168 71.9588 9.90321 71.8153 9.86069C71.8151 9.8174 71.9581 9.77334 72.1011 9.72929C72.2439 9.64194 72.6732 9.55306 72.816 9.46571C72.9588 9.37836 72.8148 9.24926 72.6714 9.20674C72.5279 9.16422 72.0979 9.12323 71.8116 9.16806C71.2388 9.21442 71.8123 9.29793 71.8125 9.34122C71.8137 9.55767 70.9553 9.77872 70.2391 9.78256C69.6661 9.78564 69.0931 9.78871 68.3766 9.74926C67.5168 9.71058 66.7989 9.4114 65.9404 9.58916C65.0818 9.76693 64.2209 9.5118 63.3623 9.68957C63.076 9.7344 62.2153 9.52256 61.9293 9.61068C61.0707 9.78844 61.2126 9.52794 60.7826 9.48695C60.6391 9.44443 60.3524 9.40268 60.2091 9.40345C59.6368 9.53639 59.064 9.58275 58.6336 9.45519C58.0599 9.32839 57.631 9.50385 57.0578 9.46364C56.6278 9.42265 55.9118 9.46978 55.4825 9.55867C54.9102 9.69161 54.4804 9.69391 53.9067 9.56712C53.7632 9.5246 53.4772 9.61271 53.1907 9.61425C51.4721 9.71005 49.7542 9.93571 47.8917 9.90241C47.3187 9.90548 46.7466 10.0817 46.3176 10.2139C46.0315 10.302 45.7457 10.4334 45.4597 10.5215C45.0278 10.1342 44.1709 10.615 43.4535 10.4024C42.8795 10.2323 41.8768 10.2377 41.0179 10.3722C40.1591 10.5067 39.8726 10.5082 39.0119 10.2964C38.4382 10.1696 38.1515 10.1278 38.0096 10.3883C37.8671 10.519 37.4371 10.478 37.1501 10.3929C36.4327 10.1803 35.5723 10.0118 34.4274 10.2344C33.71 10.0218 33.1384 10.2846 32.4221 10.2884C31.4193 10.2938 30.4177 10.5156 29.4136 10.2613C28.9833 10.177 27.981 10.2689 27.4083 10.3153C26.6925 10.4057 26.4039 10.0176 25.4023 10.2395C24.973 10.3284 24.1128 10.2031 23.3965 10.2069C20.388 10.1798 17.6641 9.80478 14.6558 9.82091C13.653 9.82629 12.793 9.74432 11.7907 9.83627C10.7884 9.92823 9.6408 9.63135 8.63757 9.55015C8.35083 9.5084 8.0641 9.46664 7.77759 9.46818C7.20458 9.47125 6.63273 9.69077 6.05833 9.43411C5.77113 9.30578 4.91162 9.31039 4.33838 9.27017C2.47517 9.107 2.18564 8.54578 0.894748 8.24966C0.751264 8.20714 0.894052 8.1198 0.893588 8.03322C0.892891 7.90335 1.60869 7.81293 1.03475 7.64284C0.891034 7.55703 1.17661 7.38234 1.17591 7.25247C1.17498 7.07931 1.0308 6.90692 0.886623 6.73453C1.46103 6.9912 1.17382 6.86287 1.02964 6.69048C0.885694 6.56138 -0.689849 6.61312 0.454544 6.30394C0.740817 6.25912 0.596404 6.04344 0.452455 5.91434C0.164789 5.69943 0.307345 5.56879 0.879658 5.43585C1.16593 5.39103 1.59267 4.82596 1.44872 4.69686C1.15966 4.22221 1.15966 4.22221 2.87776 4.03983C3.73681 3.94865 4.5954 3.77088 5.3105 3.55059C5.73956 3.41842 6.0256 3.3303 6.74186 3.32646C7.45835 3.36591 8.17508 3.44865 8.89041 3.27165C9.03343 3.22759 9.46342 3.26858 9.75016 3.31033C10.3236 3.39383 10.7541 3.5214 11.3276 3.6049C11.7575 3.64589 12.4745 3.77191 12.7608 3.72709C13.7628 3.59184 13.9075 3.85081 14.3375 3.8918C14.6242 3.93355 16.1995 3.83852 16.7721 3.74887C17.3444 3.61593 17.9174 3.61285 18.4906 3.65307C19.7804 3.73273 20.3534 3.72966 21.9287 3.63463C22.3585 3.63233 22.7882 3.63002 23.0749 3.67177C24.5091 3.96712 26.086 4.17511 27.6616 4.12337C28.6643 4.118 29.5234 4.02681 30.5264 4.06472C31.3861 4.1034 32.3887 4.05473 33.3912 4.00607C33.6777 4.00453 33.9642 4.00299 34.107 3.91565C34.8219 3.65207 36.3983 3.77348 36.9693 3.38081C36.969 3.33752 37.2553 3.29269 37.3988 3.33521C37.829 3.41949 37.9734 3.63517 38.6888 3.45817C38.8318 3.41411 39.692 3.53937 39.9792 3.6677C40.4099 3.83855 41.1257 3.74813 41.5559 3.83241C41.9859 3.87339 42.4163 4.00095 42.7033 4.086C43.1335 4.17027 43.7068 4.21049 44.1358 4.07831C44.5649 3.94614 44.9944 3.90055 45.5676 3.94076C46.1409 3.98098 46.5713 4.10854 47.1444 4.10547C47.5741 4.10317 48.1467 4.01351 48.5764 4.01121C49.0062 4.0089 49.5794 4.04912 50.0096 4.13339C50.4399 4.21767 50.5829 4.17361 51.0124 4.12802C51.2987 4.08319 51.7284 4.08089 51.8719 4.12341C52.8758 4.33448 54.3081 4.28351 55.3121 4.49457C55.8858 4.62137 56.6018 4.57424 57.1746 4.52788C57.6041 4.48228 58.0329 4.30682 58.4627 4.30452C58.8924 4.30221 59.3229 4.42977 59.7529 4.47076C60.1826 4.46845 60.4687 4.38034 60.898 4.29145C61.3273 4.20257 61.3277 4.28915 61.3282 4.37573C61.3289 4.5056 61.4724 4.54812 61.7582 4.41671C61.901 4.32937 61.7575 4.28685 62.3307 4.32706C63.9072 4.44848 65.4832 4.48332 67.2022 4.4741C67.632 4.47179 67.9183 4.42697 68.3487 4.55453C68.7794 4.72538 69.3531 4.85218 70.0684 4.67518C70.4977 4.5863 70.6426 4.88855 71.0714 4.71309C71.2142 4.62575 71.6456 4.92647 72.0742 4.70771C73.2218 5.00459 74.3669 4.82529 75.5127 4.77586C75.9425 4.77355 76.6576 4.55326 76.5162 4.90035C77.5199 5.06813 78.3806 5.27996 79.3843 5.44774C79.5275 5.44698 79.8138 5.40215 79.957 5.40138C79.9568 5.35809 79.9563 5.27151 79.8128 5.22899C78.6673 5.32172 78.8075 4.75819 77.6622 4.8942C77.662 4.85091 77.6617 4.80762 77.8048 4.76356C78.0903 4.58887 78.521 4.75972 78.8075 4.75819C79.094 4.75665 79.3798 4.62524 79.6659 4.53713C79.8094 4.57965 79.9529 4.62217 79.8096 4.62294C79.8098 4.66623 79.667 4.75358 79.524 4.79763C79.3812 4.88498 79.3817 4.97156 79.2387 5.01562C79.5252 5.01408 79.8119 5.05583 79.9549 5.01178C80.671 4.96465 81.3872 4.9608 81.8156 4.69876C82.8186 4.73667 83.6783 4.77535 84.6816 4.85656C84.8248 4.85579 84.9685 4.9416 84.9685 4.9416C85.5415 4.93852 86.2571 4.80482 86.5441 4.88986C86.6878 4.97567 87.2608 4.9726 87.8338 4.96952C88.4068 4.96645 88.5482 4.61937 89.5517 4.74386C89.9817 4.78484 90.554 4.6519 91.1268 4.60554C91.27 4.60477 91.4133 4.604 91.5565 4.60323C91.5567 4.64652 91.557 4.68981 91.5572 4.7331C91.4142 4.77716 91.4147 4.86374 91.2716 4.90779C91.4149 4.90703 91.7014 4.90549 91.8446 4.90472C92.4167 4.72849 93.1339 4.89781 93.8499 4.85068C93.8499 4.85068 93.8499 4.85068 93.7067 4.85145C93.7069 4.89473 93.7072 4.93802 93.8504 4.93726C93.8504 4.93726 93.9937 4.93649 94.1369 4.93572C94.1367 4.89243 93.9934 4.8932 93.8499 4.85068C94.1351 4.5894 95.1392 4.84376 95.5678 4.62501C95.5678 4.62501 95.9978 4.666 95.8546 4.66676C95.8566 5.05637 96.7145 4.74873 97.1445 4.78972C97.5745 4.8307 98.1466 4.65447 98.2901 4.69699C99.0075 4.9096 99.7238 4.90576 100.297 4.90268C100.44 4.90192 100.584 4.98773 100.584 5.03102C100.585 5.16088 100.442 5.29152 100.443 5.46468C100.443 5.46468 100.443 5.46468 100.443 5.42139C100.3 5.42216 100.156 5.42293 100.157 5.46622C100.157 5.46622 100.157 5.5095 100.157 5.55279C100.3 5.55203 100.3 5.50874 100.443 5.46468C100.586 5.37733 100.872 5.33251 101.015 5.28845C101.3 5.07046 102.302 4.89193 103.162 4.9739C103.162 4.9739 103.306 4.97313 103.306 5.01642C105.025 5.05049 105.025 5.05049 105.742 5.17652C106.172 5.26079 106.315 5.26002 106.601 5.12862C107.316 4.82175 108.606 4.90142 109.608 4.76617C109.608 4.76617 109.895 4.85121 109.895 4.8945C110.04 5.28334 110.04 5.28334 111.33 5.31971C111.616 5.31818 111.903 5.35993 112.189 5.35839C112.333 5.35762 112.476 5.27028 112.475 5.22699C112.475 5.1837 112.475 5.14041 112.331 5.09789C112.045 5.05613 111.758 5.10096 111.472 5.05921C111.185 5.06074 111.041 4.97493 110.898 4.9757C111.184 4.93088 111.327 4.84353 111.613 4.7987C111.757 4.79793 113.047 5.00747 113.047 5.05076C113.191 5.13657 113.335 5.22238 113.478 5.2649C113.765 5.30665 114.195 5.26106 114.481 5.25952C114.481 5.17294 114.48 5.08636 114.48 5.04307C114.48 4.99979 114.336 4.95726 114.336 4.91397C114.336 4.87068 114.479 4.78334 114.622 4.73928C114.765 4.73851 115.195 4.7795 115.195 4.7795C115.196 5.03923 115.482 4.95112 116.055 4.90476C116.341 4.85993 117.057 4.8128 117.059 5.11582C116.916 5.11659 116.915 5.0733 116.772 5.07407C116.629 5.07484 116.342 5.07638 116.199 5.07714C116.199 5.12043 116.2 5.16372 116.2 5.16372C116.486 5.16219 116.629 5.16142 117.059 5.11582C117.202 5.02848 117.488 4.98365 117.774 4.93883C118.204 4.84994 118.489 4.71854 118.491 5.02156C118.491 5.06485 118.492 5.19472 118.492 5.19472C118.922 5.279 118.494 5.62762 119.353 5.53643C119.926 5.44677 119.352 5.31998 119.352 5.2334C119.351 5.14682 119.637 4.97213 120.066 4.92653C120.353 4.88171 120.783 4.96598 121.213 5.00697C120.784 5.26901 122.216 5.13146 122.219 5.60764C123.078 5.47316 122.075 5.56512 121.931 5.43602C121.931 5.39273 120.643 5.52951 120.643 5.52951C120.786 5.57203 121.073 5.61379 121.359 5.61225C121.789 5.65323 121.933 5.69576 121.79 5.82639C121.79 5.86968 122.077 5.91143 122.22 5.91067C122.507 5.90913 122.65 5.82178 122.219 5.60764ZM161.198 8.1692L161.198 8.12591C161.055 8.12668 160.912 8.12745 160.912 8.17074C160.912 8.17074 160.912 8.21402 160.912 8.25731C161.055 8.25655 161.055 8.21326 161.484 8.03779C161.341 8.03856 161.341 8.08185 161.198 8.08262C161.198 8.12591 161.341 8.12514 161.342 8.16843C161.485 8.12437 161.485 8.12437 161.628 8.08032C161.627 8.03703 161.484 7.9945 161.198 8.1692ZM350.723 7.49912C350.58 7.49988 350.58 7.54317 350.437 7.54394C350.437 7.58723 350.58 7.58646 350.58 7.62975C350.723 7.58569 350.723 7.58569 350.866 7.54164C350.866 7.54164 350.723 7.49912 350.437 7.67381L350.437 7.63052C350.294 7.63129 350.151 7.63206 350.151 7.67535C350.151 7.67535 350.151 7.71864 350.151 7.76193C350.151 7.71864 350.294 7.71787 350.723 7.49912ZM259.191 9.15884C259.048 9.15961 259.048 9.2029 258.905 9.20367C258.905 9.24696 259.048 9.24619 259.048 9.28948C259.191 9.24542 259.191 9.24542 259.334 9.20136C259.334 9.20136 259.191 9.15884 258.905 9.33354L258.905 9.29025C258.762 9.29102 258.619 9.29178 258.619 9.33507C258.619 9.33507 258.619 9.37836 258.619 9.42165C258.762 9.37759 258.762 9.33431 259.191 9.15884ZM134.559 9.43762C134.416 9.43839 134.416 9.48168 134.273 9.48244C134.273 9.52573 134.417 9.52497 134.417 9.56825C134.56 9.5242 134.56 9.5242 134.703 9.48014C134.703 9.48014 134.559 9.43762 134.417 9.65483C134.13 9.56979 134.13 9.56979 134.13 9.56979C133.987 9.57056 133.701 9.5721 133.557 9.57286C133.558 9.61615 133.558 9.65944 133.558 9.65944C133.701 9.70196 133.844 9.65791 134.559 9.43762ZM279.39 9.22368C279.247 9.26774 279.104 9.2685 278.961 9.31256C279.105 9.35508 279.105 9.39837 279.248 9.3976C279.391 9.39684 279.678 9.3953 279.821 9.35124C279.677 9.30872 279.534 9.2662 278.531 9.14171C278.531 9.185 278.674 9.18423 278.674 9.22752C278.817 9.22675 278.817 9.18346 278.961 9.18269C278.817 9.14017 278.817 9.14017 278.674 9.09765C278.817 9.14017 278.674 9.14094 279.39 9.22368ZM187.687 5.64615C187.544 5.69021 187.401 5.73427 187.689 6.03576C187.402 5.95072 187.259 5.86491 186.972 5.77986C186.829 5.86721 186.686 5.95456 186.687 6.08443C186.687 6.12772 186.974 6.16947 187.26 6.21122C187.404 6.21045 187.546 6.12311 187.258 5.82162C187.258 5.73504 187.401 5.69098 187.687 5.64615C187.974 5.64462 188.26 5.64308 188.976 5.63924C188.833 5.6833 188.69 5.68407 188.547 5.72812C188.691 5.77064 188.691 5.81393 188.834 5.81317C188.977 5.8124 189.264 5.81086 189.407 5.7668C189.263 5.72428 189.12 5.72505 188.547 5.68483C188.546 5.59826 188.546 5.51168 188.546 5.4251C188.259 5.46992 188.116 5.51398 187.83 5.55881C187.687 5.55958 187.687 5.60286 187.687 5.64615ZM138.986 6.68657C139.272 6.64174 139.415 6.64098 139.701 6.59615C139.558 6.55363 139.414 6.51111 139.271 6.51188C138.985 6.51341 138.698 6.55824 138.412 6.55977C138.555 6.6023 138.699 6.60153 140.56 6.37509C140.273 6.41992 140.13 6.42069 139.844 6.46551C139.987 6.50803 140.131 6.55055 140.274 6.54979C140.561 6.54825 140.847 6.50342 141.133 6.50189C140.99 6.45937 140.847 6.46014 138.986 6.68657ZM301.867 6.5057L301.867 6.46241C301.724 6.46318 301.58 6.46394 301.581 6.50723C301.581 6.50723 301.581 6.55052 301.581 6.59381C301.724 6.59304 301.724 6.54975 302.726 6.32793C302.439 6.37276 302.296 6.37352 302.01 6.41835C302.153 6.46087 302.297 6.50339 302.44 6.50262C302.727 6.50109 303.013 6.45626 303.299 6.45473C303.156 6.36891 303.012 6.32639 301.867 6.5057ZM66.4881 4.86754C66.3446 4.82502 66.3443 4.78173 66.2011 4.7825C65.9144 4.74075 65.4846 4.74305 65.4855 4.91621C65.4858 4.9595 65.6292 5.00202 65.6295 5.04531C65.9157 5.00049 66.202 4.95566 67.2032 4.64726C66.9169 4.69208 66.7736 4.69285 66.4874 4.73768C66.6308 4.7802 66.7743 4.82272 66.9176 4.82195C67.2041 4.82041 67.4904 4.77559 67.7769 4.77405C67.6334 4.73153 67.4901 4.7323 66.4881 4.86754ZM161.046 6.3951C160.759 6.35335 160.615 6.31083 160.472 6.31159C160.329 6.31236 160.186 6.35642 160.042 6.35719C160.186 6.443 160.33 6.48552 160.617 6.57056C160.76 6.52651 160.903 6.48245 162.189 5.95606C161.616 5.91584 160.901 6.09284 161.045 6.26523C161.045 6.30852 161.189 6.35104 161.189 6.35104C161.618 6.30545 161.904 6.26062 162.334 6.17174C162.477 6.17097 162.476 6.08439 162.476 6.0411C162.333 5.99858 162.189 5.95606 161.046 6.3951ZM239.122 6.7989C238.979 6.79967 238.979 6.84296 238.836 6.84373C238.836 6.88702 238.98 6.88625 238.98 6.92954C239.123 6.88548 239.123 6.88548 239.266 6.84142C239.266 6.84142 239.122 6.7989 238.837 7.01689C238.693 6.93108 238.55 6.88855 238.406 6.80274C238.263 6.76022 238.548 6.58553 238.119 6.67441C237.833 6.71924 237.69 6.84987 237.547 6.93722C237.978 7.02149 238.265 7.10654 238.695 7.14752C238.551 7.105 238.694 7.10423 239.122 6.7989ZM155.166 5.30107C155.023 5.30184 155.023 5.34513 154.88 5.3459C154.88 5.38919 155.023 5.38842 155.024 5.43171C155.167 5.38765 155.167 5.38765 155.31 5.3436C155.31 5.3436 155.166 5.30107 155.311 5.60333C154.594 5.43402 154.307 5.30568 154.02 5.26393C153.733 5.26547 153.447 5.35358 153.161 5.4417C153.592 5.52597 154.022 5.61025 154.595 5.69375C154.452 5.73781 154.738 5.64969 155.166 5.30107ZM91.7262 9.53746C92.0127 9.53592 92.156 9.53515 92.4427 9.57691C93.3027 9.65887 93.8748 9.48264 94.4471 9.3497C94.5901 9.30565 94.4464 9.21984 94.3029 9.17731C94.3027 9.13402 94.0164 9.17885 93.8729 9.13633C93.7318 9.5267 93.0146 9.35739 92.2981 9.31794C92.0113 9.27618 91.5816 9.27849 91.2953 9.32332C91.0088 9.32485 90.8663 9.45549 90.7232 9.49955C90.8667 9.54207 91.1532 9.54053 91.2967 9.58305C91.2962 9.49647 91.4395 9.4957 91.7262 9.53746ZM160.764 7.39229C160.334 7.26473 159.903 7.13717 159.76 7.13794C159.33 7.14024 158.758 7.27318 158.329 7.36206L158.329 7.40535C158.759 7.48963 159.19 7.61719 159.763 7.65741C159.906 7.65664 160.335 7.48118 160.764 7.39229ZM160.613 5.83464C160.469 5.83541 160.326 5.79289 160.326 5.79289C159.467 5.97066 159.18 5.88562 159.322 5.62511C159.464 5.4079 158.892 5.45426 158.462 5.45656C158.319 5.45733 158.176 5.50139 158.033 5.54545C158.75 5.67147 158.465 5.97604 159.468 6.05724C160.041 6.05416 160.471 6.05186 160.613 5.83464ZM100.446 6.02744C100.16 6.02898 100.016 6.02975 99.7298 6.03128C99.5865 6.03205 99.4433 6.03282 99.3003 6.07688L99.3005 6.12017C99.4449 6.33584 100.734 6.28564 100.449 6.5902C100.592 6.58944 100.735 6.54538 100.879 6.54461C101.021 6.45726 101.307 6.36915 101.45 6.2818C101.45 6.23851 101.45 6.15193 101.306 6.10941C101.162 6.0236 100.733 6.0259 100.446 6.02744ZM163.069 9.71763C162.209 9.59237 162.064 9.37669 162.063 9.11696C161.92 9.11772 161.777 9.16178 161.633 9.16255C160.918 9.33955 161.636 9.59544 161.35 9.81343C161.494 9.81266 161.637 9.81189 161.78 9.81112C162.21 9.80882 162.496 9.76399 163.069 9.71763ZM91.8456 5.07788C91.2728 5.12424 90.5568 5.17137 89.6975 5.21927C90.2714 5.38936 90.9879 5.4288 91.7033 5.25181C91.7033 5.25181 92.1337 5.37937 92.277 5.3786C92.4202 5.37783 92.7065 5.33301 92.7063 5.28972C92.706 5.24643 92.7056 5.15985 92.5621 5.11733C92.5621 5.11733 92.2756 5.11886 91.8456 5.07788ZM182.961 5.80137C182.961 5.84466 182.961 5.80137 182.96 5.75809C183.103 5.62745 182.959 5.54164 182.529 5.54394C181.956 5.54702 182.101 5.71941 182.101 5.80598C182.101 5.89256 182.245 5.97837 182.532 6.02013C182.675 6.06265 182.962 6.06111 183.249 6.10286C183.105 5.97376 183.104 5.93047 182.961 5.80137ZM316.762 5.81975C316.762 5.86304 316.763 5.90633 316.763 5.90633C317.336 5.94654 317.909 5.98676 318.339 5.98445C318.339 5.94116 318.338 5.85459 318.195 5.85535C317.908 5.8136 317.478 5.72933 317.048 5.73163C317.048 5.73163 316.905 5.81898 316.762 5.81975ZM173.938 6.36925C173.795 6.41331 173.652 6.41407 173.652 6.45736C173.51 6.588 173.367 6.67535 173.225 6.80598C173.225 6.84927 173.368 6.89179 173.368 6.93508C173.511 6.89103 173.655 6.89026 173.654 6.84697C173.797 6.71633 173.94 6.62898 174.082 6.49835C174.082 6.45506 173.939 6.41254 173.938 6.36925ZM171.23 8.89463C170.943 8.80959 170.942 8.67972 170.799 8.68049C170.369 8.6395 170.083 8.72762 170.227 8.85672C170.228 8.9433 170.371 8.98582 170.515 9.07163C170.514 8.98505 170.801 8.94022 171.23 8.89463ZM222.213 5.8939C222.214 5.93719 222.357 5.97971 222.357 6.06629C222.644 5.97817 222.93 5.89006 223.072 5.75942C223.072 5.75942 222.785 5.67438 222.642 5.63186C222.498 5.63263 222.355 5.63339 222.212 5.67745C222.356 5.71997 222.213 5.80732 222.213 5.8939ZM149.018 7.45529C148.732 7.54341 148.302 7.589 149.019 7.62845C149.162 7.62768 149.305 7.54033 149.447 7.45299C149.447 7.4097 149.59 7.36564 149.447 7.32312C149.303 7.2806 149.16 7.23807 149.016 7.19555C148.73 7.1538 148.443 7.19863 148.73 7.32696C149.017 7.36871 149.017 7.412 149.018 7.45529ZM136.69 6.00623C136.26 6.05182 136.117 6.09588 135.974 6.13994C136.261 6.22498 136.405 6.31079 136.692 6.35255C136.835 6.35178 136.978 6.30772 137.121 6.26366C136.977 6.17785 136.834 6.09204 136.69 6.00623ZM176.247 9.51708L176.248 9.56037C176.821 9.5573 177.394 9.59752 177.824 9.59521C177.823 9.55192 177.823 9.50863 177.68 9.5094C177.536 9.46688 177.25 9.42513 177.106 9.42589C176.82 9.42743 176.534 9.51555 176.247 9.51708ZM165.36 9.53218C165.36 9.48889 165.36 9.53218 165.217 9.57624C165.217 9.61953 165.217 9.66282 165.361 9.70534C165.648 9.74709 166.077 9.74479 166.364 9.74325C166.507 9.74248 166.507 9.6559 166.65 9.56856C166.506 9.56932 166.363 9.5268 166.22 9.52757C165.933 9.52911 165.79 9.52988 165.36 9.53218ZM123.795 5.59919C123.508 5.60073 123.508 5.60073 123.365 5.60149C123.365 5.73136 123.366 5.86123 123.367 5.94781C123.51 5.94704 123.796 5.94551 123.94 5.94474C123.939 5.81487 123.795 5.72906 123.795 5.59919ZM134.269 8.74652C134.556 8.83157 134.843 8.91661 135.13 9.00165C135.273 8.95759 135.273 8.87101 135.272 8.82773C135.415 8.69709 135.414 8.61051 134.841 8.61358C134.698 8.61435 134.555 8.7017 134.269 8.74652ZM311.899 7.31771C311.612 7.18938 311.469 7.10357 311.326 7.14762C310.896 7.19322 310.61 7.28133 310.18 7.32693C310.324 7.36945 310.611 7.4112 310.754 7.41043C311.183 7.36484 311.47 7.32001 311.899 7.31771ZM255.312 7.10169C255.025 7.01665 254.881 6.93084 254.738 6.93161C254.452 6.93315 254.309 7.02049 254.166 7.06455C254.166 7.06455 254.31 7.19365 254.453 7.19288C254.739 7.19135 255.026 7.14652 255.312 7.10169ZM149.869 5.84897C150.156 5.93401 150.299 5.97654 150.586 6.01829C150.729 6.01752 150.872 5.97346 151.015 5.92941C150.872 5.88688 150.728 5.80107 150.584 5.75855C150.441 5.71603 150.298 5.80338 149.869 5.84897ZM154.043 9.59287C153.756 9.50783 153.612 9.42202 153.469 9.42279C153.183 9.42432 153.04 9.46838 152.897 9.55573C152.897 9.55573 153.041 9.68483 153.184 9.68406C153.471 9.68252 153.614 9.63847 154.043 9.59287ZM335.406 9.65921C335.12 9.66075 334.833 9.70557 334.69 9.70634C334.834 9.79215 335.121 9.92048 335.264 9.87643C335.551 9.87489 335.837 9.78677 336.123 9.74195C335.693 9.74425 335.55 9.70173 335.406 9.65921ZM251.585 6.68877C252.015 6.72976 252.158 6.72899 252.445 6.72745C252.588 6.72669 252.874 6.68186 253.018 6.68109C252.874 6.63857 252.73 6.55276 252.587 6.55353C252.444 6.51101 252.3 6.51178 252.157 6.55583C252.014 6.5566 251.871 6.60066 251.585 6.68877ZM116.075 8.62765C116.362 8.71269 116.505 8.75521 116.792 8.79696C116.935 8.79619 117.078 8.75214 117.221 8.70808C117.078 8.66556 116.934 8.57975 116.791 8.53723C116.647 8.53799 116.361 8.58282 116.075 8.62765ZM176.249 9.82011C175.963 9.90822 175.82 9.95228 175.534 10.0404L175.678 10.1262C176.107 10.0806 176.393 10.0358 176.823 9.99019C176.679 9.94767 176.536 9.90515 176.249 9.82011ZM133.253 6.28441C133.109 6.19859 132.966 6.15607 132.822 6.11355C132.536 6.15838 132.25 6.24649 132.25 6.28978C132.251 6.37636 132.538 6.41811 132.825 6.50316C132.824 6.41658 132.967 6.37252 133.253 6.28441ZM178.396 9.54885C178.683 9.5906 178.827 9.63312 179.113 9.67488C179.257 9.67411 179.543 9.67257 179.686 9.62851C179.399 9.54347 178.969 9.4592 178.682 9.37415C178.682 9.46073 178.539 9.50479 178.396 9.54885ZM79.5451 8.73697C79.6886 8.77949 79.8323 8.8653 79.8326 8.90859C79.9756 8.86453 79.9751 8.77796 79.9749 8.73467C79.9744 8.64809 79.831 8.60557 79.8305 8.51899C79.8307 8.56228 79.6879 8.64962 79.5451 8.73697ZM156.472 8.32442C156.328 8.23861 156.041 8.19686 155.897 8.11105C155.754 8.1551 155.612 8.24245 155.612 8.28574C155.755 8.32826 156.042 8.37001 156.186 8.41253C156.329 8.36848 156.472 8.32442 156.472 8.32442ZM318.061 7.63099C317.917 7.54518 317.917 7.50189 317.917 7.4586C317.631 7.50342 317.345 7.59154 317.058 7.63637C317.202 7.67889 317.345 7.72141 317.345 7.72141C317.632 7.67658 317.775 7.63252 318.061 7.63099ZM119.511 8.30618C119.368 8.35024 119.225 8.3943 119.083 8.48164C119.083 8.52493 119.083 8.56822 119.226 8.61074C119.513 8.56592 119.799 8.4778 120.085 8.43298C119.798 8.39122 119.798 8.39122 119.511 8.30618ZM155.886 5.90328C155.742 5.90405 155.599 5.94811 155.599 5.94811C155.6 6.03469 155.744 6.1205 155.887 6.16302C155.887 6.16302 156.317 6.11743 156.46 6.11666C156.173 6.03162 156.029 5.9891 155.886 5.90328ZM216.482 5.66489C216.338 5.57908 216.338 5.53579 216.338 5.4925C216.051 5.53733 215.765 5.62544 215.479 5.67027C215.623 5.71279 215.766 5.75531 215.766 5.75531C216.052 5.71049 216.195 5.66643 216.482 5.66489ZM145.877 9.46351C145.734 9.50756 145.591 9.59491 145.591 9.6382C145.591 9.68149 145.735 9.72401 145.735 9.7673C146.021 9.67918 146.164 9.63513 146.45 9.54701C146.307 9.50449 146.164 9.50526 145.877 9.46351ZM230.108 8.83862C229.535 8.88498 229.249 8.88651 228.962 8.88805C229.106 8.93057 229.249 8.97309 229.393 8.97232C229.679 8.97079 229.966 8.96925 230.252 8.96771C230.109 8.92519 230.108 8.8819 230.108 8.83862ZM143.423 6.09999C143.28 6.10076 143.137 6.14482 143.137 6.14482C143.138 6.2314 143.281 6.31721 143.425 6.35973C143.425 6.35973 143.854 6.31413 143.998 6.31337C143.854 6.27084 143.567 6.1858 143.423 6.09999ZM189.28 8.84112C189.136 8.75531 189.136 8.66873 188.992 8.58292C188.849 8.62698 188.706 8.67104 188.707 8.75761C188.707 8.84419 188.851 8.93 188.851 9.01658C188.994 8.92924 189.137 8.88518 189.28 8.84112ZM126.101 8.22755C125.814 8.27238 125.671 8.27315 125.528 8.27391C125.672 8.35973 125.959 8.44477 126.102 8.53058C126.245 8.48652 126.388 8.44246 126.388 8.44246C126.388 8.35588 126.244 8.27007 126.101 8.22755ZM266.346 7.73517C266.202 7.64936 265.916 7.60761 265.772 7.5218C265.629 7.56585 265.486 7.6532 265.486 7.69649C265.63 7.73901 265.917 7.78076 266.06 7.82328C266.06 7.78 266.203 7.73594 266.346 7.73517ZM108.058 9.57974C108.201 9.62227 108.345 9.66479 108.631 9.70654C108.775 9.70577 108.918 9.705 109.061 9.66095C108.917 9.57514 108.63 9.49009 108.487 9.40428C108.344 9.44834 108.2 9.4924 108.058 9.57974ZM178.953 6.38565C178.666 6.47376 178.523 6.51782 178.237 6.60594C178.381 6.60517 178.524 6.64769 178.524 6.64769C178.667 6.60363 178.953 6.55881 179.096 6.51475C179.096 6.47146 178.953 6.42894 178.953 6.38565ZM281.541 9.60176C281.398 9.64582 281.256 9.73316 281.256 9.77645C281.256 9.81974 281.399 9.86226 281.4 9.90555C281.686 9.81744 281.829 9.77338 282.115 9.68526C281.828 9.64351 281.828 9.64351 281.541 9.60176ZM178.391 8.46661C178.534 8.55242 178.535 8.639 178.679 8.72481C178.822 8.68076 178.965 8.6367 178.964 8.55012C178.964 8.46354 178.82 8.37773 178.819 8.29115C178.533 8.37927 178.534 8.42256 178.391 8.46661ZM136.85 9.25217C136.707 9.25294 136.564 9.29699 136.564 9.29699C136.565 9.38357 136.708 9.46938 136.852 9.51191C136.852 9.51191 137.281 9.46631 137.425 9.46554C137.281 9.37973 136.994 9.33798 136.85 9.25217ZM266.211 9.25107C266.498 9.33611 266.642 9.37863 266.928 9.46367C266.928 9.42038 267.071 9.37633 267.071 9.37633C266.928 9.3338 266.784 9.24799 266.641 9.20547C266.641 9.20547 266.354 9.2503 266.211 9.25107ZM270.921 5.97901C271.065 6.06482 271.065 6.10811 271.208 6.15063C271.494 6.06251 271.637 6.01846 271.924 5.93034C271.78 5.93111 271.637 5.88859 271.637 5.88859C271.35 5.89012 271.207 5.93418 270.921 5.97901ZM329.794 5.01392C329.795 5.10049 329.938 5.18631 329.939 5.22959C330.082 5.18554 330.224 5.09819 330.224 5.0549C330.224 5.01161 330.223 4.92503 330.223 4.88174C330.08 4.9258 329.937 4.96986 329.794 5.01392ZM151.747 8.82596C152.033 8.78113 152.176 8.78036 152.319 8.7363C152.032 8.65126 151.889 8.60874 151.602 8.5237C151.602 8.56699 151.459 8.61104 151.459 8.61104C151.46 8.74091 151.603 8.78343 151.747 8.82596ZM225.952 8.60116C225.952 8.51458 225.808 8.42877 225.808 8.38548C225.665 8.42954 225.522 8.51688 225.523 8.56017C225.523 8.60346 225.523 8.69004 225.523 8.73333C225.666 8.68927 225.809 8.64522 225.952 8.60116ZM268.927 8.06766C269.214 8.1527 269.357 8.19522 269.644 8.28026C269.644 8.23697 269.787 8.19291 269.787 8.19291C269.643 8.15039 269.5 8.06458 269.356 8.02206C269.213 8.02283 269.07 8.06689 268.927 8.06766ZM173.091 8.6682C172.948 8.71225 172.805 8.75631 172.805 8.7996C172.806 8.84289 172.949 8.9287 172.95 8.97199C173.093 8.92793 173.236 8.92716 173.236 8.88387C173.235 8.84059 173.235 8.75401 173.091 8.6682ZM174.521 8.05446C174.521 8.14104 174.378 8.1851 174.378 8.22839C174.378 8.22839 174.522 8.27091 174.665 8.27014C174.808 8.22608 174.807 8.1395 174.807 8.09621C174.807 8.1395 174.664 8.09698 174.521 8.05446ZM181.53 6.19866C181.531 6.28524 181.388 6.3293 181.388 6.37259C181.388 6.37259 181.531 6.41511 181.675 6.41434C181.818 6.37028 181.817 6.2837 181.817 6.24041C181.96 6.23965 181.673 6.19789 181.53 6.19866ZM187.853 9.93104C187.71 9.9751 187.567 9.97586 187.424 10.0199C187.568 10.0624 187.711 10.105 187.998 10.1034C188.141 10.1027 188.284 10.0586 188.427 10.0578C188.14 9.97279 187.997 9.97356 187.853 9.93104ZM187.995 9.67053C187.995 9.62724 187.852 9.58472 187.851 9.49814C187.708 9.5422 187.565 9.54297 187.565 9.58626C187.565 9.62955 187.709 9.71536 187.709 9.75865C187.853 9.75788 187.996 9.71382 187.995 9.67053ZM188.853 9.40619C188.853 9.40619 188.711 9.49353 188.711 9.53682C188.854 9.53606 188.998 9.57858 188.998 9.57858C189.141 9.57781 189.284 9.53375 189.427 9.48969C189.283 9.44717 189.14 9.44794 188.853 9.40619ZM190.849 7.62057C190.42 7.66616 190.42 7.66616 190.277 7.66693C190.42 7.70945 190.564 7.75197 190.707 7.7512C190.85 7.75043 190.993 7.74967 191.136 7.70561C190.85 7.70714 190.85 7.66385 190.849 7.62057ZM192.994 6.74325C192.994 6.74325 192.851 6.8306 192.851 6.87389C192.994 6.87312 193.138 6.91564 193.138 6.91564C193.281 6.91487 193.424 6.87082 193.567 6.82676C193.424 6.82753 193.28 6.78501 192.994 6.74325ZM195.565 5.34416C195.708 5.30011 195.851 5.29934 195.994 5.25528C195.85 5.21276 195.707 5.17024 195.42 5.17177C195.277 5.17254 195.134 5.2166 194.991 5.21737C195.278 5.25912 195.421 5.30164 195.565 5.34416ZM197.714 5.5058C197.571 5.50657 197.428 5.55062 197.142 5.55216C197.285 5.59468 197.285 5.63797 197.429 5.6372C197.572 5.63643 197.858 5.59161 198.001 5.59084C198.001 5.54755 197.858 5.54832 197.714 5.5058ZM196.445 9.2356C196.589 9.27812 196.589 9.3647 196.589 9.3647C196.732 9.36393 197.019 9.3624 197.162 9.31834C197.162 9.27505 197.018 9.23253 197.018 9.23253C196.875 9.2333 196.732 9.23407 196.445 9.2356ZM197.72 6.63132C197.864 6.67384 197.864 6.76042 197.864 6.76042C198.008 6.75965 198.294 6.75812 198.437 6.71406C198.437 6.67077 198.293 6.62825 198.293 6.62825C198.293 6.62825 198.007 6.62979 197.72 6.63132ZM69.81 9.91474C69.953 9.87068 70.0963 9.86991 70.2393 9.82585C70.0958 9.78333 69.9523 9.74081 69.6658 9.74235C69.5226 9.74312 69.3796 9.78717 69.2363 9.78794C69.3798 9.83046 69.6665 9.87222 69.81 9.91474ZM71.6656 8.64936C71.236 8.69495 71.236 8.69495 71.0928 8.69572C71.2363 8.73824 71.3798 8.78076 71.523 8.77999C71.6663 8.77922 71.8095 8.77846 71.9525 8.7344C71.8093 8.73517 71.6658 8.69265 71.6656 8.64936ZM202.318 9.11752C202.175 9.11829 202.031 9.11906 202.031 9.11906C202.032 9.16235 202.032 9.24893 202.032 9.29222L202.319 9.29068C202.319 9.24739 202.318 9.2041 202.318 9.11752ZM79.6721 5.70594C79.6721 5.70594 79.5294 5.79329 79.5296 5.83658C79.6728 5.83581 79.8163 5.87833 79.8163 5.87833C79.9596 5.87756 80.1026 5.83351 80.2456 5.78945C80.1024 5.79022 79.9589 5.7477 79.6721 5.70594ZM247.853 5.2802C247.853 5.2802 248.14 5.32195 248.283 5.32118C248.283 5.27789 248.426 5.23384 248.426 5.23384C248.425 5.19055 248.282 5.14803 248.139 5.1055C248.139 5.14879 248.139 5.19208 247.853 5.2802ZM86.8443 7.4424C86.7013 7.48645 86.5582 7.53051 86.5585 7.5738C86.5587 7.61709 86.7024 7.7029 86.7027 7.74619C86.8457 7.70213 86.9889 7.70136 86.9887 7.65808C86.9882 7.5715 86.8445 7.48569 86.8443 7.4424ZM87.5594 7.22211C87.7029 7.26463 87.7033 7.35121 87.7033 7.35121C87.8466 7.35044 88.1331 7.3489 88.2761 7.30485C88.2759 7.26156 88.1324 7.21904 88.1324 7.21904C87.9891 7.2198 87.8459 7.22057 87.5594 7.22211ZM250.882 9.07353C251.025 9.11605 251.026 9.20263 251.026 9.20263C251.169 9.20187 251.455 9.20033 251.598 9.15627C251.598 9.11298 251.455 9.07046 251.455 9.07046C251.311 9.07123 251.025 9.07277 250.882 9.07353ZM91.1493 8.80461C91.149 8.76132 91.0056 8.7188 91.0051 8.63222C90.8621 8.67628 90.7188 8.67705 90.7191 8.72034C90.7193 8.76363 90.863 8.84944 90.8632 8.89273C90.8632 8.89273 91.0065 8.89196 91.1493 8.80461ZM267.643 9.11352C267.786 9.15604 267.787 9.24262 267.787 9.24262C267.93 9.24185 268.217 9.24031 268.36 9.19625C268.359 9.15296 268.216 9.11044 268.216 9.11044C268.216 9.11044 267.929 9.11198 267.643 9.11352ZM279.808 7.01361C279.808 7.01361 280.095 7.05537 280.238 7.0546C280.238 7.01131 280.381 6.96725 280.381 6.96725C280.381 6.92396 280.237 6.88144 280.094 6.83892C279.951 6.83969 279.951 6.88298 279.808 7.01361ZM281.677 8.12915C281.82 8.17167 281.821 8.25825 281.821 8.25825C281.964 8.25748 282.25 8.25594 282.393 8.21189C282.393 8.1686 282.25 8.12608 282.25 8.12608C282.249 8.08279 281.963 8.12761 281.677 8.12915ZM293.264 5.12324C293.408 5.16576 293.551 5.20828 293.695 5.20752C293.838 5.20675 294.124 5.16192 294.267 5.16115C294.124 5.11863 294.124 5.07534 293.98 5.07611C293.694 5.12094 293.408 5.12247 293.264 5.12324ZM113.194 5.74262C113.05 5.61352 113.05 5.61352 113.05 5.57023C112.907 5.61429 112.764 5.65835 112.764 5.70163C112.765 5.74492 112.765 5.78821 112.908 5.83073C113.051 5.78668 113.194 5.74262 113.194 5.74262ZM115.199 5.55871C114.769 5.6043 114.769 5.6043 114.626 5.60507C114.77 5.64759 114.913 5.69011 115.056 5.68934C115.2 5.68857 115.343 5.68781 115.486 5.64375C115.343 5.64452 115.342 5.60123 115.199 5.55871ZM118.797 8.69963C118.797 8.69963 118.654 8.78697 118.655 8.83026C118.798 8.8295 118.941 8.87202 118.941 8.87202C119.085 8.87125 119.228 8.82719 119.371 8.78313C119.227 8.7839 119.084 8.74138 118.797 8.69963ZM324.52 9.97733C324.52 9.93404 324.377 9.89152 324.376 9.80494C324.233 9.849 324.09 9.84977 324.09 9.89306C324.09 9.93635 324.234 10.0222 324.234 10.0655C324.234 10.0655 324.377 10.0214 324.52 9.97733ZM327.651 6.15096C327.508 6.15173 327.365 6.19579 327.079 6.19733C327.222 6.23985 327.222 6.28314 327.366 6.28237C327.509 6.2816 327.795 6.23677 327.938 6.23601C327.938 6.23601 327.795 6.19349 327.651 6.15096ZM337.411 9.51859C337.124 9.52012 336.981 9.4776 336.838 9.47837C336.838 9.47837 336.695 9.52243 336.695 9.56572C336.838 9.60824 337.125 9.6067 337.268 9.60593C337.125 9.6067 337.268 9.56264 337.411 9.51859ZM348.01 9.24529C347.724 9.24683 347.58 9.2043 347.437 9.20507C347.437 9.20507 347.294 9.24913 347.294 9.29242C347.438 9.33494 347.724 9.3334 347.868 9.33264C347.724 9.3334 347.867 9.28935 348.01 9.24529ZM350.153 8.06495C349.866 8.06649 349.723 8.02397 349.58 8.02473C349.58 8.02473 349.437 8.06879 349.437 8.11208C349.58 8.1546 349.867 8.15307 350.01 8.1523C350.01 8.1523 350.153 8.10824 350.153 8.06495ZM125.675 8.96578C125.388 8.96731 125.245 8.92479 125.102 8.92556C125.102 8.92556 124.959 8.96962 124.959 9.01291C125.102 9.05543 125.389 9.05389 125.532 9.05312C125.532 9.05312 125.532 9.00983 125.675 8.96578ZM127.818 7.87202C127.675 7.91608 127.532 7.96013 127.532 8.00342C127.532 8.04671 127.676 8.13252 127.676 8.17581C127.819 8.13175 127.963 8.13099 127.962 8.0877C127.819 8.00189 127.818 7.91531 127.818 7.87202ZM130.113 8.50907C130.114 8.59565 129.971 8.6397 129.971 8.68299C129.971 8.68299 130.115 8.72551 130.258 8.72475C130.401 8.68069 130.4 8.59411 130.4 8.55082C130.4 8.55082 130.257 8.55159 130.113 8.50907ZM132.268 9.4932C132.125 9.53726 131.981 9.53803 131.838 9.58208C131.982 9.6246 132.125 9.66713 132.412 9.66559C132.555 9.66482 132.698 9.62076 132.841 9.61999C132.698 9.57747 132.411 9.53572 132.268 9.4932ZM445.285 9.93575C444.856 9.98134 444.856 9.98134 444.712 9.98211C444.856 10.0246 444.999 10.0672 445.143 10.0664C445.286 10.0656 445.429 10.0648 445.572 10.0208C445.285 9.97904 445.285 9.93575 445.285 9.93575ZM137.404 5.52621C137.117 5.52774 136.974 5.48522 136.83 5.48599C136.83 5.48599 136.687 5.53005 136.688 5.57334C136.831 5.61586 137.117 5.61432 137.261 5.61355C137.261 5.65684 137.261 5.61355 137.404 5.52621ZM468.777 9.50673C468.634 9.55079 468.347 9.55232 468.347 9.55232C468.348 9.59561 468.348 9.68219 468.492 9.72471C468.635 9.72395 468.778 9.67989 468.778 9.67989C468.778 9.6366 468.777 9.55002 468.777 9.50673ZM136.417 8.56184C136.56 8.51778 136.703 8.51702 136.846 8.47296C136.703 8.43044 136.559 8.38792 136.273 8.38945C136.13 8.39022 135.987 8.43428 135.843 8.43505C136.13 8.4768 136.274 8.51932 136.417 8.56184ZM142.416 5.23958C142.273 5.28364 142.13 5.3277 142.13 5.37099C142.13 5.41427 142.274 5.50009 142.274 5.54337C142.417 5.49932 142.561 5.49855 142.56 5.45526C142.56 5.36868 142.416 5.28287 142.416 5.23958ZM142.58 9.13486C142.294 9.1364 142.15 9.09388 142.007 9.09464C142.007 9.09464 141.864 9.1387 141.864 9.18199C142.008 9.22451 142.294 9.22297 142.437 9.22221C142.294 9.22297 142.437 9.17892 142.58 9.13486ZM146.863 6.38458C146.719 6.25548 146.719 6.25548 146.719 6.21219C146.576 6.25625 146.433 6.3003 146.433 6.34359C146.433 6.38688 146.434 6.43017 146.577 6.47269C146.577 6.4294 146.72 6.38535 146.863 6.38458ZM148.724 6.15814C148.58 6.02904 148.58 6.02904 148.58 5.98576C148.437 6.02981 148.294 6.07387 148.294 6.11716C148.294 6.16045 148.295 6.20374 148.438 6.24626C148.438 6.20297 148.581 6.15891 148.724 6.15814ZM150.887 8.7007C150.6 8.70223 150.457 8.65971 150.313 8.66048C150.313 8.66048 150.17 8.70454 150.171 8.74783C150.314 8.79035 150.601 8.78881 150.744 8.78804C150.744 8.78804 150.744 8.74475 150.887 8.7007ZM160.055 8.65153C159.768 8.65306 159.625 8.61054 159.482 8.61131C159.482 8.61131 159.339 8.65537 159.339 8.69866C159.482 8.74118 159.769 8.73964 159.912 8.73888C159.912 8.73888 159.912 8.69559 160.055 8.65153ZM63.502 9.03946C63.3588 9.04023 63.359 9.08352 63.2158 9.08429L63.3593 9.12681C63.5025 9.12604 63.5025 9.12604 63.6455 9.08198C63.5023 9.08275 63.502 9.03946 63.502 9.03946ZM78.9779 9.82228C79.1212 9.82151 79.121 9.77822 79.2642 9.77745L79.1207 9.73493C78.9775 9.7357 78.9775 9.7357 78.8345 9.77976C78.8347 9.82305 78.9779 9.82228 78.9779 9.82228ZM80.6881 8.16806L80.5447 8.12554C80.5449 8.16883 80.4016 8.1696 80.4019 8.21289L80.5454 8.25541C80.5451 8.21212 80.6881 8.16806 80.6881 8.16806ZM82.5588 9.71649C82.559 9.75978 82.7023 9.75902 82.7025 9.8023L82.8455 9.75825C82.8453 9.71496 82.8453 9.71496 82.7018 9.67244C82.702 9.71573 82.702 9.71573 82.5588 9.71649ZM84.849 9.35789L84.7055 9.31537C84.7057 9.35865 84.5625 9.35942 84.5627 9.40271L84.7062 9.44523C84.7062 9.44523 84.8492 9.40118 84.849 9.35789ZM85.4199 8.96521C85.2766 8.96598 85.2769 9.00927 85.1336 9.01003L85.2771 9.05256C85.4204 9.05179 85.4204 9.05179 85.5634 9.00773C85.4199 8.96521 85.4199 8.96521 85.4199 8.96521ZM85.8515 9.30922L85.995 9.35174C86.1382 9.35097 86.1382 9.35097 86.2813 9.30691L86.1378 9.26439C86.1378 9.26439 85.9945 9.26516 85.8515 9.30922ZM86.5615 8.13656C86.4182 8.13733 86.4185 8.18062 86.2752 8.18139L86.4187 8.22391C86.562 8.22314 86.562 8.22314 86.705 8.17908C86.705 8.17908 86.5617 8.17985 86.5615 8.13656ZM88.43 9.29539L88.287 9.33945C88.2872 9.38274 88.2872 9.38274 88.4307 9.42526L88.5738 9.3812C88.4303 9.33868 88.4303 9.33868 88.43 9.29539ZM89.2921 9.76696L89.1486 9.72444C89.1489 9.76773 89.0056 9.7685 89.0058 9.81179L89.1493 9.85431C89.1491 9.81102 89.2923 9.81025 89.2921 9.76696ZM94.9988 5.364L94.8553 5.32148C94.8555 5.36477 94.7122 5.36554 94.7125 5.40883L94.856 5.45135C94.8557 5.40806 94.8557 5.40806 94.9988 5.364ZM96.1501 6.35351L96.0071 6.39757C96.1503 6.3968 96.1506 6.44009 96.2938 6.43933L96.4368 6.39527C96.4368 6.39527 96.2934 6.35275 96.1501 6.35351ZM110.618 6.23263L110.475 6.19011C110.475 6.2334 110.332 6.23417 110.332 6.27746L110.476 6.31998C110.475 6.27669 110.618 6.23263 110.618 6.23263ZM111.345 8.17681L111.202 8.13429C111.202 8.17758 111.059 8.17835 111.059 8.22164L111.202 8.26416C111.202 8.22087 111.202 8.17758 111.345 8.17681ZM112.355 9.42683C112.355 9.47012 112.498 9.46935 112.498 9.51264L112.641 9.46858C112.641 9.42529 112.641 9.42529 112.498 9.38277C112.498 9.42606 112.498 9.42606 112.355 9.42683ZM113.779 7.94731C113.779 7.9906 113.923 7.98983 113.923 8.03312L114.066 7.98906C114.066 7.94577 114.066 7.94577 113.922 7.90325C113.922 7.94654 113.922 7.94654 113.779 7.94731ZM114.647 9.41454L114.79 9.45706C114.79 9.41377 114.933 9.413 114.933 9.36971L114.789 9.32719C114.79 9.37048 114.79 9.37048 114.647 9.41454ZM116.642 7.49905L116.785 7.54157C116.929 7.5408 116.929 7.5408 117.072 7.49674L116.928 7.45422C116.928 7.45422 116.785 7.49828 116.642 7.49905ZM121.655 7.25571C121.654 7.21242 121.511 7.21319 121.511 7.1699L121.368 7.21396C121.368 7.25725 121.368 7.25725 121.512 7.29977L121.655 7.25571ZM122.365 6.21292L122.508 6.16887C122.365 6.16963 122.365 6.12635 122.222 6.12711L122.079 6.17117C122.222 6.1704 122.365 6.16963 122.365 6.21292ZM123.094 8.50342L122.95 8.4609C122.951 8.50419 122.807 8.50496 122.808 8.54825L122.951 8.59077C122.951 8.54748 122.951 8.50419 123.094 8.50342ZM125.376 6.71626L125.233 6.76032C125.377 6.75955 125.377 6.80284 125.52 6.80207L125.663 6.75802C125.52 6.75879 125.377 6.75955 125.376 6.71626ZM128.676 7.60767L128.533 7.65173C128.533 7.69502 128.533 7.69502 128.677 7.73754L128.82 7.69348C128.82 7.69348 128.676 7.65096 128.676 7.60767ZM129.115 9.29365L129.258 9.2496C129.115 9.25036 129.114 9.20708 128.971 9.20784L128.828 9.2519C128.971 9.25113 128.971 9.25113 129.115 9.29365ZM91.5765 8.32612L91.433 8.2836C91.4332 8.32689 91.29 8.32766 91.2902 8.37095L91.4337 8.41347C91.5767 8.36941 91.5765 8.32612 91.5765 8.32612ZM134.399 6.19168L134.255 6.14916C134.255 6.19245 134.112 6.19322 134.112 6.23651L134.256 6.27903C134.256 6.23574 134.399 6.19168 134.399 6.19168ZM138.554 6.29927L138.697 6.34179C138.84 6.34102 138.84 6.34102 138.983 6.29696L138.84 6.25444C138.697 6.2985 138.697 6.2985 138.554 6.29927ZM140.002 9.19198L139.859 9.23604C140.002 9.23527 140.002 9.27856 140.146 9.27779L140.289 9.23373C140.145 9.2345 140.002 9.23527 140.002 9.19198ZM141.289 8.83875C141.289 8.88204 141.433 8.88127 141.433 8.92456L141.576 8.8805C141.576 8.83721 141.576 8.83721 141.432 8.79469C141.432 8.83798 141.432 8.83798 141.289 8.83875ZM142.706 5.8441L142.562 5.80157C142.562 5.84486 142.419 5.84563 142.419 5.88892L142.563 5.93144C142.563 5.88815 142.706 5.88739 142.706 5.8441ZM143.133 5.4089L142.99 5.45295C143.133 5.45219 143.134 5.49548 143.277 5.49471L143.42 5.45065C143.277 5.45142 143.277 5.45142 143.133 5.4089ZM144.565 5.18477L144.422 5.22883C144.565 5.22806 144.565 5.27135 144.708 5.27058L144.851 5.22652C144.708 5.22729 144.708 5.184 144.565 5.18477ZM145.426 5.48318L145.283 5.52724C145.426 5.52647 145.426 5.56976 145.569 5.56899L145.712 5.52494C145.569 5.5257 145.426 5.48318 145.426 5.48318ZM256.878 5.2318L256.735 5.27586C256.878 5.27509 256.878 5.31838 257.022 5.31761L257.165 5.27355C257.021 5.27432 257.021 5.23103 256.878 5.2318ZM260.908 8.71673L261.051 8.75925C261.194 8.75848 261.194 8.75848 261.337 8.71443L261.194 8.6719C261.194 8.6719 261.051 8.67267 260.908 8.71673ZM207.742 5.45202C207.742 5.40873 207.599 5.4095 207.598 5.36621L207.455 5.41027C207.456 5.45356 207.456 5.45356 207.599 5.49608C207.599 5.49608 207.599 5.49608 207.742 5.45202ZM264.06 8.91628L263.917 8.87375C263.917 8.91704 263.774 8.91781 263.774 8.9611L263.918 9.00362C263.917 8.96033 263.917 8.91704 264.06 8.91628ZM266.19 5.35502L266.047 5.3125C266.047 5.35579 265.904 5.35656 265.904 5.39985L266.047 5.44237C266.047 5.39908 266.19 5.39831 266.19 5.35502ZM272.065 5.66984L271.922 5.62732C271.922 5.67061 271.779 5.67137 271.779 5.71466L271.923 5.75718C271.922 5.71389 271.922 5.6706 272.065 5.66984ZM272.928 6.22799C272.928 6.27128 273.071 6.27051 273.072 6.3138L273.215 6.26974C273.214 6.22645 273.214 6.22645 273.071 6.18393C272.928 6.22799 272.928 6.22799 272.928 6.22799ZM273.22 7.2654C273.22 7.22211 273.077 7.22288 273.076 7.17959L272.933 7.22365C272.933 7.26694 272.933 7.26694 273.077 7.30946C273.22 7.2654 273.22 7.2654 273.22 7.2654ZM207.314 5.80064C207.314 5.84393 207.458 5.84316 207.458 5.88645L207.601 5.84239C207.601 5.7991 207.601 5.7991 207.457 5.75658C207.314 5.80064 207.314 5.80064 207.314 5.80064ZM206.896 7.88084L206.752 7.83832C206.752 7.8816 206.609 7.88237 206.609 7.92566L206.753 7.96818C206.753 7.92489 206.753 7.92489 206.896 7.88084ZM226.373 6.91057L226.23 6.86804C226.23 6.91133 226.087 6.9121 226.087 6.95539L226.23 6.99791C226.23 6.95462 226.373 6.91057 226.373 6.91057ZM226.805 7.34116L226.949 7.38368C227.092 7.38291 227.092 7.38291 227.235 7.33885L227.092 7.29633C226.948 7.2971 226.805 7.34116 226.805 7.34116ZM215.356 9.35064C215.212 9.35141 215.213 9.3947 215.069 9.39546L215.213 9.43799C215.356 9.43722 215.356 9.43722 215.499 9.39316C215.499 9.34987 215.499 9.34987 215.356 9.35064ZM209.195 9.21052L209.338 9.25304C209.482 9.25227 209.482 9.25227 209.625 9.20821L209.481 9.16569C209.338 9.16646 209.338 9.20975 209.195 9.21052ZM174.076 5.37282L174.22 5.41534C174.22 5.37205 174.363 5.37129 174.363 5.328L174.219 5.28548C174.219 5.32877 174.219 5.32877 174.076 5.37282ZM299.859 6.04027L300.003 6.08279C300.146 6.08202 300.146 6.08202 300.289 6.03796L300.145 5.99544C300.002 5.99621 299.859 5.99698 299.859 6.04027ZM213.328 5.33548L213.472 5.378C213.472 5.33471 213.615 5.33394 213.615 5.29065L213.471 5.24813C213.471 5.29142 213.471 5.29142 213.328 5.33548ZM300.715 5.42961L300.858 5.38555C300.715 5.38632 300.715 5.34303 300.572 5.3438L300.429 5.38785C300.572 5.38709 300.715 5.38632 300.715 5.42961ZM301.292 6.03259C301.292 6.07588 301.435 6.07511 301.435 6.1184L301.578 6.07434C301.578 6.03105 301.578 6.03105 301.435 5.98853C301.292 6.03259 301.292 6.03259 301.292 6.03259ZM171.649 6.90101C171.649 6.9443 171.793 6.94353 171.793 6.98682L171.936 6.94277C171.936 6.89948 171.936 6.89948 171.792 6.85695C171.792 6.90024 171.792 6.90024 171.649 6.90101ZM170.352 5.52267L170.496 5.56519C170.496 5.5219 170.639 5.52113 170.639 5.47784L170.495 5.43532C170.496 5.47861 170.496 5.5219 170.352 5.52267ZM308.476 10.0201L308.619 10.0626C308.619 10.0193 308.762 10.0186 308.762 9.97526L308.619 9.93274C308.619 9.97603 308.619 9.97603 308.476 10.0201ZM311.03 5.50416C311.03 5.54745 311.174 5.54668 311.174 5.58997L311.317 5.54591C311.317 5.50263 311.317 5.50262 311.173 5.4601C311.173 5.4601 311.03 5.46087 311.03 5.50416ZM311.89 5.54284L312.033 5.58536C312.177 5.58459 312.177 5.58459 312.32 5.54054L312.176 5.49802C312.033 5.49878 312.033 5.49878 311.89 5.54284ZM314.047 7.08974C314.047 7.13303 314.191 7.13226 314.191 7.17555L314.334 7.13149C314.334 7.0882 314.334 7.0882 314.19 7.04568C314.19 7.04568 314.19 7.08897 314.047 7.08974ZM314.632 9.33771L314.776 9.38023C314.919 9.37947 314.919 9.37947 315.062 9.33541L314.918 9.29289C314.775 9.29366 314.775 9.33694 314.632 9.33771ZM316.064 9.24345L316.208 9.28597C316.351 9.2852 316.351 9.28521 316.494 9.24115L316.351 9.19863C316.207 9.19939 316.064 9.24345 316.064 9.24345ZM318.49 7.49881C318.49 7.5421 318.634 7.54134 318.634 7.58463L318.777 7.54057C318.777 7.49728 318.777 7.49728 318.633 7.45476C318.633 7.45476 318.633 7.45476 318.49 7.49881ZM163.497 9.32572C163.497 9.36901 163.64 9.36824 163.64 9.41153L163.783 9.36747C163.783 9.32418 163.783 9.32418 163.64 9.28166C163.64 9.28166 163.64 9.32495 163.497 9.32572ZM322.514 9.77164C322.37 9.77241 322.371 9.8157 322.227 9.81647L322.371 9.85899C322.514 9.85822 322.514 9.85822 322.657 9.81416C322.657 9.81416 322.514 9.81493 322.514 9.77164ZM164.764 5.33618L164.621 5.29366C164.621 5.33695 164.478 5.33772 164.478 5.38101L164.622 5.42353C164.765 5.42276 164.765 5.37947 164.764 5.33618ZM235.961 5.04094L235.818 5.085C235.962 5.08423 235.962 5.12752 236.105 5.12675L236.248 5.08269C236.105 5.08346 235.962 5.08423 235.961 5.04094ZM328.098 9.22221L327.955 9.26627C328.098 9.2655 328.098 9.30879 328.241 9.30802L328.384 9.26396C328.241 9.26473 328.098 9.2655 328.098 9.22221ZM163.342 7.2486C163.342 7.29189 163.486 7.29112 163.486 7.33441L163.629 7.29035C163.629 7.24706 163.629 7.24706 163.485 7.20454C163.485 7.20454 163.485 7.24783 163.342 7.2486ZM331.251 9.59491L331.108 9.63897C331.109 9.68226 331.109 9.68226 331.252 9.72478L331.395 9.68072C331.252 9.6382 331.251 9.59491 331.251 9.59491ZM335.667 4.85255L335.81 4.80849C335.667 4.80926 335.666 4.76597 335.523 4.76674L335.38 4.8108C335.523 4.81003 335.523 4.81003 335.667 4.85255ZM163.194 6.297L163.337 6.33952C163.337 6.29623 163.48 6.29546 163.48 6.25217L163.337 6.20965C163.337 6.25294 163.337 6.29623 163.194 6.297ZM338.104 5.27238C338.105 5.31567 338.248 5.3149 338.248 5.35819L338.391 5.31414C338.391 5.27085 338.391 5.27085 338.247 5.22833C338.104 5.22909 338.104 5.22909 338.104 5.27238ZM341.278 9.32469L341.135 9.36874C341.135 9.41203 341.135 9.41203 341.279 9.45455L341.422 9.4105C341.421 9.36721 341.421 9.32392 341.278 9.32469ZM162.904 5.73577L163.048 5.77829C163.191 5.77753 163.191 5.77753 163.334 5.73347L163.191 5.69095C163.191 5.69095 163.048 5.735 162.904 5.73577ZM345.983 5.18684L345.84 5.2309C345.983 5.23013 345.984 5.27342 346.127 5.27265L346.27 5.22859C346.126 5.18607 345.983 5.18684 345.983 5.18684ZM349.581 8.32776C349.438 8.32853 349.438 8.37182 349.295 8.37259L349.439 8.41511C349.582 8.41434 349.582 8.41434 349.725 8.37028C349.581 8.32776 349.581 8.32776 349.581 8.32776ZM238.705 9.00897L238.562 9.05302C238.705 9.05226 238.705 9.09555 238.848 9.09478L238.991 9.05072C238.848 9.05149 238.705 9.00897 238.705 9.00897ZM354.31 8.56214L354.167 8.6062C354.31 8.60543 354.311 8.64872 354.454 8.64796L354.597 8.6039C354.454 8.60467 354.454 8.60467 354.31 8.56214ZM365.761 6.85569L365.905 6.89821C366.048 6.89744 366.048 6.89744 366.191 6.85338L366.048 6.81086C365.905 6.85492 365.761 6.85569 365.761 6.85569ZM367.197 7.49735L367.34 7.45329C367.197 7.45406 367.197 7.41077 367.054 7.41153L366.911 7.45559C366.911 7.45559 367.054 7.49811 367.197 7.49735ZM367.337 6.84724C367.194 6.848 367.194 6.89129 367.051 6.89206L367.194 6.93458C367.338 6.93381 367.338 6.93381 367.481 6.88976C367.481 6.88976 367.481 6.88976 367.337 6.84724ZM370.765 4.88077L370.622 4.92483C370.622 4.96812 370.622 4.96812 370.765 5.01064L370.908 4.96658C370.908 4.9233 370.765 4.88077 370.765 4.88077ZM375.082 8.45075C374.938 8.45152 374.939 8.49481 374.795 8.49557L374.939 8.5381C375.082 8.53733 375.082 8.53733 375.225 8.49327C375.082 8.49404 375.082 8.49404 375.082 8.45075ZM375.362 7.36698C375.219 7.36774 375.219 7.41103 375.076 7.4118L375.22 7.45432C375.363 7.45356 375.363 7.45355 375.506 7.4095C375.506 7.4095 375.506 7.36621 375.362 7.36698ZM376.929 5.58366L377.072 5.5396C376.928 5.54037 376.928 5.49708 376.785 5.49785L376.642 5.54191C376.785 5.54114 376.928 5.54037 376.929 5.58366ZM388.246 5.52297C388.246 5.56626 388.389 5.56549 388.389 5.60878L388.532 5.56472C388.532 5.52143 388.532 5.52143 388.389 5.47891C388.245 5.47968 388.246 5.52297 388.246 5.52297ZM390.832 7.02427L390.976 7.06679C390.975 7.0235 391.119 7.02273 391.118 6.97944L390.975 6.93692C390.975 6.98021 390.975 6.98021 390.832 7.02427ZM243.994 6.90265L243.851 6.94671C243.851 6.99 243.851 6.99 243.994 7.03252L244.137 6.98846C244.137 6.98846 243.994 6.94594 243.994 6.90265ZM394.715 9.77405L394.858 9.72999C394.715 9.73076 394.714 9.68747 394.571 9.68824L394.428 9.7323C394.428 9.7323 394.572 9.77482 394.715 9.77405ZM160.489 9.47172L160.346 9.51578C160.346 9.55907 160.346 9.55907 160.49 9.60159L160.633 9.55753C160.632 9.51424 160.489 9.51501 160.489 9.47172ZM210.322 5.61135L210.178 5.56883C210.178 5.61212 210.035 5.61289 210.035 5.65617L210.179 5.6987C210.322 5.69793 210.322 5.65464 210.322 5.61135ZM161.326 5.26804L161.469 5.31056C161.613 5.30979 161.613 5.30979 161.756 5.26573L161.612 5.22321C161.469 5.22398 161.326 5.26804 161.326 5.26804ZM404.17 9.8965L404.313 9.85244C404.17 9.85321 404.17 9.80992 404.027 9.81069L403.884 9.85475C404.027 9.85398 404.17 9.8965 404.17 9.8965ZM159.054 9.0898L159.198 9.13232C159.341 9.13155 159.341 9.13155 159.484 9.0875L159.341 9.04497C159.197 9.04574 159.054 9.0898 159.054 9.0898ZM247.281 5.49972C247.138 5.50049 247.138 5.54378 246.995 5.54454L247.138 5.58707C247.282 5.5863 247.282 5.5863 247.425 5.54224C247.425 5.54224 247.425 5.54224 247.281 5.49972ZM159.2 9.47864L159.056 9.43612C159.056 9.47941 158.913 9.48017 158.913 9.52346L159.057 9.56598C159.2 9.52193 159.2 9.52193 159.2 9.47864ZM217.931 8.73076L217.787 8.68824C217.788 8.73153 217.644 8.7323 217.645 8.77558L217.788 8.81811C217.788 8.81811 217.931 8.77405 217.931 8.73076ZM249.714 4.96719C249.857 4.96642 249.857 4.92313 250 4.92236L249.856 4.87984C249.713 4.88061 249.713 4.88061 249.57 4.92466C249.57 4.92466 249.57 4.96795 249.714 4.96719ZM443.282 10.2928L443.425 10.2488C443.281 10.2495 443.281 10.2062 443.138 10.207L442.995 10.2511C443.138 10.2503 443.281 10.2495 443.282 10.2928ZM451.285 6.78664C451.428 6.78588 451.428 6.74259 451.571 6.74182L451.428 6.6993C451.285 6.70007 451.285 6.70007 451.142 6.74412C451.142 6.74412 451.285 6.74336 451.285 6.78664ZM251.434 5.17441L251.291 5.21847C251.291 5.26176 251.291 5.26176 251.434 5.30428L251.577 5.26022C251.577 5.26022 251.577 5.21693 251.434 5.17441ZM155.331 9.36951C155.331 9.4128 155.475 9.41203 155.475 9.45532L155.618 9.41126C155.618 9.36797 155.618 9.36797 155.474 9.32545L155.331 9.36951ZM155.038 8.07236L154.895 8.11642C154.895 8.15971 154.895 8.15971 155.038 8.20223L155.181 8.15818C155.181 8.11489 155.038 8.11565 155.038 8.07236ZM472.21 8.57921L472.353 8.53516C472.21 8.53592 472.21 8.49264 472.066 8.4934L471.923 8.53746C472.067 8.53669 472.21 8.57921 472.21 8.57921ZM154.756 8.8964C154.612 8.89717 154.613 8.94046 154.469 8.94123L154.613 8.98375C154.756 8.98298 154.756 8.98298 154.899 8.93892C154.899 8.93892 154.899 8.93892 154.756 8.8964ZM193.578 8.86136C193.435 8.86213 193.435 8.90542 193.292 8.90619L193.435 8.94871C193.578 8.94794 193.578 8.94794 193.721 8.90388C193.721 8.90388 193.721 8.90388 193.578 8.86136ZM153.891 7.94864L153.748 7.90612C153.748 7.94941 153.605 7.95018 153.605 7.99347L153.748 8.03599C153.748 7.9927 153.748 7.9927 153.891 7.94864ZM150.747 9.3941L150.891 9.43662C151.034 9.43585 151.034 9.43585 151.177 9.39179L151.033 9.34927C150.89 9.39333 150.747 9.3941 150.747 9.3941ZM206.473 9.31169L206.617 9.35421C206.617 9.31092 206.76 9.31016 206.76 9.26687L206.616 9.22434C206.616 9.22434 206.616 9.26763 206.473 9.31169ZM253.44 5.29353L253.583 5.33605C253.727 5.33528 253.727 5.33528 253.87 5.29122L253.726 5.2487C253.727 5.29199 253.583 5.29276 253.44 5.29353ZM190.287 9.65824L190.144 9.61572C190.144 9.65901 190.001 9.65978 190.001 9.70307L190.145 9.74559C190.144 9.7023 190.144 9.65901 190.287 9.65824ZM254.737 6.67187C254.593 6.67264 254.594 6.71593 254.45 6.7167L254.594 6.75922C254.737 6.75845 254.737 6.75845 254.88 6.71439C254.737 6.71516 254.737 6.71516 254.737 6.67187ZM148.721 5.63867C148.721 5.59538 148.578 5.59615 148.578 5.55286L148.435 5.59692C148.435 5.64021 148.435 5.64021 148.578 5.68273L148.721 5.63867ZM147.305 8.59003C147.305 8.63332 147.448 8.63256 147.448 8.67585L147.591 8.63179C147.591 8.5885 147.591 8.5885 147.448 8.54598C147.448 8.58927 147.448 8.58927 147.305 8.59003ZM263.35 9.91577C263.493 9.91501 263.636 9.87095 263.779 9.82689C263.635 9.78437 263.492 9.69856 263.348 9.65604C263.205 9.65681 263.062 9.70086 262.632 9.74646C262.919 9.8315 263.063 9.91731 263.35 9.91577ZM258.623 10.1576C258.767 10.1568 258.91 10.1993 258.91 10.1993C259.053 10.1986 259.196 10.1545 259.339 10.1104C259.196 10.1112 259.053 10.0687 258.766 10.0269C258.909 10.0695 258.766 10.1135 258.623 10.1576ZM274.095 10.1612C274.095 10.2045 274.096 10.291 274.239 10.3336C274.382 10.3328 274.525 10.2887 274.525 10.2887C274.525 10.2455 274.525 10.1589 274.524 10.0723C274.381 10.1164 274.095 10.1612 274.095 10.1612ZM299.308 10.0693C299.451 10.0685 299.594 10.0677 299.737 10.067C299.594 10.0244 299.593 9.93785 299.45 9.93862C299.307 9.93939 299.02 9.94093 298.734 9.98575C299.021 10.0275 299.164 10.07 299.308 10.0693ZM120.523 10.0324C120.667 10.0316 120.953 10.0301 121.096 9.98602C121.096 9.94273 120.952 9.90021 120.952 9.90021C120.809 9.90098 120.523 9.90251 120.236 9.90405C120.523 9.98909 120.523 10.0324 120.523 10.0324ZM124.248 9.96912C124.391 9.96835 124.678 9.96681 124.821 9.92275C124.82 9.87946 124.677 9.83694 124.677 9.83694C124.534 9.83771 124.247 9.83925 123.961 9.84078C124.104 9.9266 124.248 9.96912 124.248 9.96912ZM80.2691 10.1617C80.2688 10.1184 80.4121 10.1176 80.4119 10.0743L80.2684 10.0318C80.2686 10.0751 80.1254 10.0759 80.1256 10.1192C80.2688 10.1184 80.2691 10.1617 80.2691 10.1617ZM118.661 10.0857C118.805 10.0849 118.805 10.0849 118.948 10.0408L118.804 9.99831C118.661 9.99908 118.661 9.99908 118.518 10.0431C118.518 10.0431 118.518 10.0864 118.661 10.0857ZM119.521 10.0378C119.521 10.081 119.521 10.081 119.664 10.1236L119.807 10.0795C119.807 10.0362 119.807 10.0362 119.664 9.9937C119.521 10.0378 119.521 10.0378 119.521 10.0378ZM128.115 9.90508L128.259 9.9476C128.402 9.94684 128.402 9.94684 128.545 9.90278L128.402 9.86026C128.402 9.86026 128.258 9.86103 128.115 9.90508ZM187.284 10.67L187.428 10.7126C187.571 10.7118 187.571 10.7118 187.714 10.6677L187.571 10.6252C187.428 10.6693 187.284 10.67 187.284 10.67ZM269.656 10.488C269.799 10.4873 269.799 10.4873 269.942 10.4432L269.799 10.4007C269.655 10.4014 269.655 10.4014 269.512 10.4455C269.512 10.4455 269.513 10.4888 269.656 10.488ZM178.687 10.3265L178.831 10.369C178.974 10.3683 178.974 10.3683 179.117 10.3242L178.973 10.2817C178.83 10.2825 178.83 10.2825 178.687 10.3265ZM282.09 5.0533C282.233 5.05253 282.233 5.00924 282.376 5.00847C282.233 4.96595 282.233 4.96595 282.089 4.92343L281.946 4.96749C281.947 5.01078 282.09 5.01001 282.09 5.0533ZM284.383 5.12758C284.526 5.12682 284.526 5.08353 284.669 5.08276C284.525 5.04024 284.525 5.04024 284.382 4.99772L284.239 5.04177C284.239 5.08506 284.382 5.08429 284.383 5.12758ZM305.181 10.1243C305.182 10.1676 305.182 10.2109 305.325 10.2101C305.325 10.2101 305.468 10.2094 305.612 10.2086C305.611 10.1653 305.468 10.1661 305.468 10.1228C305.325 10.1236 305.325 10.1236 305.181 10.1243ZM202.467 10.1124L202.61 10.1549C202.753 10.1542 202.753 10.1542 202.896 10.1101L202.753 10.0676C202.753 10.1109 202.61 10.1116 202.467 10.1124ZM471.19 5.42446C471.334 5.4237 471.477 5.37964 471.62 5.37887C471.477 5.33635 471.333 5.29383 471.333 5.29383C471.333 5.29383 471.333 5.33712 471.19 5.42446ZM149.744 9.31289C149.743 9.09645 149.17 9.1861 148.883 9.14435C148.884 9.18764 148.884 9.23092 148.884 9.27421C149.171 9.31597 149.457 9.31443 149.744 9.31289Z" fill="#FDB706"/>
</svg>
