<svg width="160" height="33" viewBox="0 0 160 33" fill="none" xmlns="http://www.w3.org/2000/svg">
<path d="M18.6982 25.9045C18.6984 26.4417 18.6423 26.9775 18.5309 27.5031C17.8099 30.8565 14.758 32.8512 10.2139 32.9882C10.0408 32.9932 9.86764 32.9974 9.68949 32.9974C4.11417 32.9957 0 29.7693 0 25.4165H5.33529C5.33529 27.371 7.24475 28.7407 9.98808 28.7407C11.9954 28.7407 13.2684 27.6652 13.2684 26.0524C13.2684 24.7806 12.7306 23.9992 10.2825 23.3633L5.72838 22.1383C2.55013 21.2592 0.73518 18.9587 0.73518 15.7322C0.73518 11.8691 4.40857 9.03125 9.49629 9.03125C15.08 9.03125 18.5058 11.7245 18.5058 16.125H13.2684C13.2684 14.2164 11.7989 13.09 9.30476 13.09C7.3953 13.09 6.02196 14.0718 6.02196 15.4373C6.02196 16.6623 6.7563 17.4946 8.85813 18.0796L13.4122 19.3982C16.644 20.3283 18.6982 22.6756 18.6982 25.9045Z" fill="white"/>
<path d="M73.3883 0V9.2121H78.6198V13.6594H73.3883V23.4506C73.3883 27.4065 74.6102 27.8979 76.7112 27.8979C77.5476 27.8979 78.8641 27.7993 79.4027 27.7015V32.3919C78.5663 32.5365 77.0065 32.6861 75.4433 32.6861C72.8505 32.6861 68.0572 32.3401 68.0572 24.6715V13.6594H64.1914V9.2121H68.0572V0" fill="white"/>
<path d="M159.893 9.43164L153.607 9.46172L148.74 16.4234L143.802 9.50768L137.521 9.53693L145.62 20.8858L137.629 32.3048L143.91 32.2756L148.782 25.313L153.715 32.2296L160 32.1995L151.901 20.8557L159.893 9.43164Z" fill="white"/>
<path d="M96.9318 9.21291C94.6308 9.20863 92.3823 9.90053 90.4825 11.1976C88.8904 12.2933 87.5887 13.7591 86.6894 15.469C85.7902 17.1789 85.3203 19.0815 85.3203 21.013C85.3203 22.9445 85.7902 24.8471 86.6894 26.557C87.5887 28.2668 88.8904 29.7327 90.4825 30.8284C92.3831 32.1242 94.6309 32.8167 96.9318 32.8156C103.354 32.8156 108.548 27.531 108.548 21.013C108.548 14.495 103.354 9.21291 96.9318 9.21291ZM96.9318 28.1093C93.9928 28.1093 91.4744 26.2107 90.4825 23.5408C89.8836 21.9104 89.8836 20.1206 90.4825 18.4902C91.4744 15.8161 93.9877 13.9167 96.9318 13.9167C100.742 13.9167 103.835 17.1014 103.835 21.0197C103.835 24.938 100.742 28.1093 96.9318 28.1093Z" fill="white"/>
<path d="M90.4806 0V18.4894C89.8817 20.1198 89.8817 21.9096 90.4806 23.54V32.3919H85.3184V0" fill="white"/>
<path d="M41.9865 11.9573L41.9773 11.9481C39.9031 10.176 37.2627 9.20406 34.5335 9.20802C28.1151 9.20802 22.917 14.4868 22.917 21.0106C22.9143 22.0965 23.0623 23.1776 23.357 24.2228C24.7278 29.1798 29.2116 32.8132 34.5285 32.8132C36.7839 32.8165 38.9895 32.1507 40.8658 30.9004C42.3923 29.8764 43.6613 28.5139 44.5737 26.919C45.4862 25.3242 46.0174 23.5402 46.1259 21.7064C46.2344 19.8726 45.9172 18.0385 45.1992 16.3474C44.4812 14.6563 43.3817 13.1538 41.9865 11.9573V11.9573ZM40.8641 23.8301C39.8019 26.3453 37.363 28.1085 34.5268 28.1085C30.8468 28.1085 27.8358 25.1345 27.6376 21.3983C27.6326 21.2671 27.6284 21.141 27.6284 21.0106C27.6284 17.1006 30.723 13.9169 34.5268 13.9169C35.652 13.9147 36.7595 14.1961 37.7469 14.7349C39.1471 15.5039 40.2457 16.7235 40.8641 18.1953C41.2379 19.0877 41.4303 20.0454 41.4303 21.0127C41.4303 21.98 41.2379 22.9377 40.8641 23.8301V23.8301Z" fill="white"/>
<path d="M46.1445 9.20117V32.3902H40.8652V23.8332C41.239 22.9409 41.4314 21.9832 41.4314 21.0159C41.4314 20.0485 41.239 19.0909 40.8652 18.1985V9.21287L46.1445 9.20117Z" fill="white"/>
<path d="M59.4043 0V32.3919H54.0732V0" fill="white"/>
<path d="M135.722 20.9322C135.729 24.0599 134.499 27.0638 132.298 29.2886L120.122 21.0108C119.864 20.8323 119.557 20.7376 119.243 20.7394C118.928 20.7412 118.622 20.8394 118.366 21.0208L113.06 24.7152C112.65 23.4967 112.442 22.2194 112.444 20.9339C112.444 14.4159 117.655 9.13965 124.083 9.13965C130.51 9.13965 135.722 14.4176 135.722 20.9322Z" fill="white"/>
</svg>
